<svg xmlns="http://www.w3.org/2000/svg" width="33.077" height="33.077" viewBox="0 0 33.077 33.077">
  <g id="noun-cancellation-time-2596939" transform="translate(-116.67 -46.664)">
    <path id="Path_12579" data-name="Path 12579" d="M133.209,46.664a16.539,16.539,0,1,0,0,33.077,1.654,1.654,0,1,0,0-3.308A13.231,13.231,0,1,1,146.439,63.2a1.654,1.654,0,1,0,3.308,0,16.538,16.538,0,0,0-16.539-16.539Z" fill="#aba9af"/>
    <path id="Path_12580" data-name="Path 12580" d="M263.157,140a1.654,1.654,0,0,0-1.654,1.654v7.591l-4.482,4.465a1.661,1.661,0,1,0,2.348,2.348l4.962-4.962a1.653,1.653,0,0,0,.48-1.174v-8.27A1.654,1.654,0,0,0,263.157,140Z" transform="translate(-129.948 -86.717)" fill="#aba9af"/>
    <path id="Path_12581" data-name="Path 12581" d="M429.313,350.357a1.654,1.654,0,0,0-2.348,0l-2.134,2.15-2.134-2.15h0a1.661,1.661,0,0,0-2.348,2.348l2.15,2.134-2.15,2.134h0a1.661,1.661,0,1,0,2.348,2.348l2.134-2.15,2.134,2.15h0a1.661,1.661,0,1,0,2.348-2.348l-2.15-2.134,2.15-2.134h0a1.654,1.654,0,0,0,0-2.348Z" transform="translate(-281.699 -281.712)" fill="#aba9af"/>
  </g>
</svg>
