<svg xmlns="http://www.w3.org/2000/svg" width="30.871" height="28.208" viewBox="0 0 30.871 28.208">
  <g id="Group_12936" data-name="Group 12936" transform="translate(11.417 -127.763)">
    <path id="Path_12567" data-name="Path 12567" d="M205.762,291.2a1.339,1.339,0,0,0-1.363,1.363v6.5a5.36,5.36,0,0,0,5.36,5.315H222.7a5.351,5.351,0,0,0,5.315-5.315v-6.5a1.363,1.363,0,1,0-2.726,0v6.5a2.636,2.636,0,0,1-2.635,2.635h-12.9a2.636,2.636,0,0,1-2.635-2.635v-6.5a1.339,1.339,0,0,0-1.363-1.363Z" transform="translate(-212.182 -148.402)" fill="#e74442"/>
    <path id="Path_12568" data-name="Path 12568" d="M161.923,119.966l10.629-10.4a3.564,3.564,0,0,1,5,0l10.629,10.4a1.308,1.308,0,0,0,.954.409,1.238,1.238,0,0,0,.954-.409,1.357,1.357,0,0,0,0-1.908l-10.629-10.447a6.309,6.309,0,0,0-8.767,0l-10.675,10.4a1.317,1.317,0,0,0,0,1.908,1.357,1.357,0,0,0,1.908.045Z" transform="translate(-171.023 21.924)" fill="#e74442"/>
  </g>
</svg>
