<svg xmlns="http://www.w3.org/2000/svg" width="34.47" height="37.153" viewBox="0 0 34.47 37.153">
  <g id="Group_12935" data-name="Group 12935" transform="matrix(0.574, -0.819, 0.819, 0.574, -304.147, 42.349)">
    <path id="Path_12569" data-name="Path 12569" d="M339.638,207.2a.839.839,0,0,0-.837.837v.837a.837.837,0,1,0,1.674,0v-.837A.839.839,0,0,0,339.638,207.2Z" transform="translate(-135.807 36.985)" fill="#abaaaf" stroke="#abaaaf" stroke-width="1"/>
    <path id="Path_12570" data-name="Path 12570" d="M339.638,262.08a.839.839,0,0,0-.837.837v1.465a.837.837,0,1,0,1.674,0v-1.465A.84.84,0,0,0,339.638,262.08Z" transform="translate(-135.807 -13.794)" fill="#abaaaf" stroke="#abaaaf" stroke-width="1"/>
    <path id="Path_12571" data-name="Path 12571" d="M339.638,324.8a.839.839,0,0,0-.837.837v.837a.837.837,0,1,0,1.674,0v-.837A.839.839,0,0,0,339.638,324.8Z" transform="translate(-135.807 -71.826)" fill="#abaaaf" stroke="#abaaaf" stroke-width="1"/>
    <path id="Path_12572" data-name="Path 12572" d="M173.241,151.2h-20.59a4.84,4.84,0,0,0-4.813,4.813v2.3h.879a2.483,2.483,0,0,1,2.469,2.511,2.51,2.51,0,0,1-2.469,2.511h-.879v2.3a4.84,4.84,0,0,0,4.813,4.813H173.2a4.84,4.84,0,0,0,4.813-4.813v-2.3h-.879a2.483,2.483,0,0,1-2.469-2.511,2.51,2.51,0,0,1,2.469-2.511h.879v-2.3a4.778,4.778,0,0,0-4.771-4.813Zm3.139,5.524a4.176,4.176,0,0,0,0,8.2v.711a3.161,3.161,0,0,1-3.139,3.139h-20.59a3.162,3.162,0,0,1-3.139-3.139v-.711a4.176,4.176,0,0,0,0-8.2v-.711a3.162,3.162,0,0,1,3.139-3.139H173.2a3.161,3.161,0,0,1,3.139,3.139v.711Z" transform="translate(40.885 88.8)" fill="#abaaaf" stroke="#abaaaf" stroke-width="1"/>
  </g>
</svg>
