<svg xmlns="http://www.w3.org/2000/svg" width="26.346" height="47.713" viewBox="0 0 26.346 47.713">
  <g id="Group_12937" data-name="Group 12937" transform="translate(-239.873 -340.5)">
    <path id="Path_12573" data-name="Path 12573" d="M113.121,52.506a.9.9,0,0,1-.5-.154c-.463-.335-11.515-8.212-11.515-17.007a12.013,12.013,0,1,1,24.026,0c0,8.8-11.052,16.672-11.515,17.007a.9.9,0,0,1-.5.154Zm0-27.458a10.3,10.3,0,0,0-10.3,10.3c0,6.916,8.177,13.617,10.3,15.23,2.119-1.622,10.3-8.323,10.3-15.23A10.3,10.3,0,0,0,113.121,25.048Z" transform="translate(139.266 317.668)" fill="#aaa9ae" stroke="#aaa9ae" stroke-width="1"/>
    <path id="Path_12574" data-name="Path 12574" d="M168.48,80.291a5.148,5.148,0,1,1,5.148-5.148A5.152,5.152,0,0,1,168.48,80.291Zm0-8.58a3.432,3.432,0,1,0,3.432,3.432A3.431,3.431,0,0,0,168.48,71.71Z" transform="translate(83.906 276.154)" fill="#aaa9ae" stroke="#aaa9ae" stroke-width="1"/>
    <path id="Path_12575" data-name="Path 12575" d="M217.983,282.522H228.03a4.291,4.291,0,0,0,0-8.581h-7.2a.858.858,0,1,1,0-1.716h7.2a6.006,6.006,0,1,1,0,12.013H217.983Z" transform="translate(31.683 99.563)" fill="#aaa9ae" stroke="#aaa9ae" stroke-width="1"/>
    <path id="Path_12576" data-name="Path 12576" d="M518.48,453.631a5.148,5.148,0,1,1,5.148-5.148A5.152,5.152,0,0,1,518.48,453.631Zm0-8.58a3.432,3.432,0,1,0,3.432,3.432A3.431,3.431,0,0,0,518.48,445.05Z" transform="translate(-272.959 -65.918)" fill="#aaa9ae" stroke="#aaa9ae" stroke-width="1"/>
  </g>
</svg>
