<svg xmlns="http://www.w3.org/2000/svg" width="26.046" height="32.756" viewBox="0 0 26.046 32.756">
  <g id="noun-document-3454830" transform="translate(-217.05 -103.25)">
    <g id="Group_1709" data-name="Group 1709" transform="translate(217.4 103.6)">
      <path id="Path_1631" data-name="Path 1631" d="M241.49,104.863A4.283,4.283,0,0,0,238.5,103.6H221.706a4.312,4.312,0,0,0-4.306,4.306V131.35a4.312,4.312,0,0,0,4.306,4.306H235.1a7.584,7.584,0,0,0,2.928-.581,7.727,7.727,0,0,0,2.483-1.658,7.651,7.651,0,0,0,2.239-5.411V107.913A4.264,4.264,0,0,0,241.49,104.863Zm-.653,23.143a5.733,5.733,0,0,1-5.741,5.741h-.718v-6.458h6.459Zm0-2.634h-7.413a.944.944,0,0,0-.675.28.956.956,0,0,0-.28.675v7.413H221.706a2.4,2.4,0,0,1-2.347-1.923l-.05-.022V107.9a2.4,2.4,0,0,1,2.4-2.4h16.742a2.4,2.4,0,0,1,2.4,2.4v17.474Z" transform="translate(-217.4 -103.6)" fill="#a9a8ae" stroke="#a9a8ae" stroke-width="0.7"/>
    </g>
    <g id="Group_1710" data-name="Group 1710" transform="translate(224.095 110.302)">
      <path id="Path_1632" data-name="Path 1632" d="M322.526,198.435a.965.965,0,0,1-.825.481H311.654a.958.958,0,0,1-.825-1.435.965.965,0,0,1,.825-.481H321.7a.958.958,0,0,1,.825,1.435Z" transform="translate(-310.7 -197)" fill="#a9a8ae" stroke="#a9a8ae" stroke-width="0.7"/>
    </g>
    <g id="Group_1711" data-name="Group 1711" transform="translate(224.095 116.998)">
      <path id="Path_1633" data-name="Path 1633" d="M322.526,291.735a.965.965,0,0,1-.825.481H311.654a.958.958,0,0,1-.825-1.435.965.965,0,0,1,.825-.481H321.7a.958.958,0,0,1,.825,1.435Z" transform="translate(-310.7 -290.3)" fill="#a9a8ae" stroke="#a9a8ae" stroke-width="0.7"/>
    </g>
  </g>
</svg>
