<svg xmlns="http://www.w3.org/2000/svg" xmlns:xlink="http://www.w3.org/1999/xlink" width="142" height="142" viewBox="0 0 142 142">
  <defs>
    <clipPath id="clip-path">
      <rect id="Rectangle_923" data-name="Rectangle 923" width="142" height="142" rx="71" transform="translate(168 425)" fill="#fff"/>
    </clipPath>
  </defs>
  <g id="Group_13277" data-name="Group 13277" transform="translate(-175 -422)">
    <rect id="Rectangle_922" data-name="Rectangle 922" width="142" height="142" rx="71" transform="translate(175 422)" fill="#fff"/>
    <g id="Mask_Group_5" data-name="Mask Group 5" transform="translate(7 -3)" clip-path="url(#clip-path)">
      <g id="Group_13276" data-name="Group 13276" transform="translate(120.47 397.084)">
        <g id="Group_13275" data-name="Group 13275" transform="translate(58.767 48.951)">
          <path id="Path_14999" data-name="Path 14999" d="M108.871,205.739c-.948-2.576-1.8-5.183-2.486-7.842-.923-3.571-1.671-7.181-2.4-10.8-.619-3.089-1.147-6.2-1.549-9.318a83.988,83.988,0,0,1-.8-9.182,2.509,2.509,0,0,0-.22-1.234.388.388,0,0,0-.578-.159,22.414,22.414,0,0,1-4.91,2.253q-4.6,1.684-9.226,3.28a76.751,76.751,0,0,0-9.983,4.175,26.648,26.648,0,0,0-7.2,5.324,34.5,34.5,0,0,0-3.372,4.091,42.685,42.685,0,0,0-6.083,13.113,48.78,48.78,0,0,0-1.3,6.3Z" transform="translate(-58.767 -85.274)" fill="#7099d0"/>
          <path id="Path_15000" data-name="Path 15000" d="M208,205.757a47.421,47.421,0,0,0-1.3-6.263,41.115,41.115,0,0,0-8.048-15.67,27.4,27.4,0,0,0-8.786-6.979,70.764,70.764,0,0,0-7.932-3.415q-5.809-2.06-11.609-4.145a22.8,22.8,0,0,1-4.189-1.905c-.548-.335-.808-.227-.942.4a2.748,2.748,0,0,0-.063.572c.009,1.464-.136,2.917-.263,4.371-.2,2.259-.436,4.513-.777,6.755-.5,3.3-1.1,6.59-1.766,9.865a107.232,107.232,0,0,1-4.436,16.413Z" transform="translate(-89.234 -85.292)" fill="#7099d0"/>
          <path id="Path_15001" data-name="Path 15001" d="M114.1,130.194c.134-1.909.262-3.634.372-5.36.12-1.88.217-3.761.339-5.641a1.473,1.473,0,0,0-.474-1.219,14.851,14.851,0,0,1-3.663-6.058,44.84,44.84,0,0,1-1.469-6.512c-.321-2.207-.6-4.417-.8-6.636-.1-1.109-.089-2.228-.28-3.331-.039-.227-.055-.459-.1-.684a.57.57,0,0,0-.447-.473c-.186-.046-.38-.06-.567-.107a8.156,8.156,0,0,1-4.524-2.807,7.03,7.03,0,0,1,1.6-10.325,7.974,7.974,0,0,1,2.6-1.2.6.6,0,0,0,.518-.634c.22-2.913.437-5.826.693-8.736a54.078,54.078,0,0,1,2.529-13.1,13.026,13.026,0,0,1,2.485-4.644c.206-.228.415-.455.634-.67a2.153,2.153,0,0,1,2.618-.551c.173.08.363.124.544.19a3.84,3.84,0,0,0,2.922-.1c.389-.166.769-.352,1.152-.531s.767-.354,1.147-.542a3.571,3.571,0,0,1,3.529.078c.267.15.555.263.83.4a1.848,1.848,0,0,0,1.968-.1c.355-.231.72-.446,1.083-.661a15.042,15.042,0,0,1,2.283-1.1,2.853,2.853,0,0,1,2.344.131A6.717,6.717,0,0,1,135.5,50.3c.524.452,1.047.905,1.592,1.333a2.444,2.444,0,0,0,2.5.356c.646-.243,1.274-.537,1.909-.81,1.484-.639,2.068-.535,3.189.6.486.493.931,1.027,1.425,1.51.561.549.736.572,1.432.231.413-.2.8-.467,1.2-.69a1.824,1.824,0,0,1,2.42.285,6.453,6.453,0,0,1,1.478,2.183,24.973,24.973,0,0,1,1.669,5.264,81.5,81.5,0,0,1,1.456,10.96c.17,2.646.425,5.286.611,7.931a1,1,0,0,0,.654.963,6.886,6.886,0,0,1,1.815,1.214,7.027,7.027,0,0,1-.475,11.033,7.968,7.968,0,0,1-3.44,1.545.663.663,0,0,0-.636.663c-.2,1.6-.377,3.206-.665,4.792-.679,3.742-1.251,7.5-2.048,11.222a11.065,11.065,0,0,1-3.506,6.09c-.115.1-.222.214-.344.307a.962.962,0,0,0-.383.9c.054.882.063,1.768.116,2.651.141,2.379.294,4.757.445,7.135.055.882.124,1.764.176,2.646.013.22.053.464-.2.606-.172.1-.333-.123-.394-.571-.046-.343-.087-.688-.107-1.033q-.276-4.663-.545-9.327c0-.038,0-.077,0-.115q-.106-.855-.213-1.709c-.628.009-.935.577-1.429.823-.308.154-.584.372-.889.535a76.665,76.665,0,0,1-9.331,4.249,14.969,14.969,0,0,1-5.78.864,12.238,12.238,0,0,1-3.5-.684c-.948-.317-1.883-.669-2.829-.991a22.857,22.857,0,0,1-6.147-3.366c-.279-.2-.554-.415-.841-.608-.262-.176-.4-.1-.455.23a5.491,5.491,0,0,0-.07.572c-.1,1.8-.2,3.609-.309,5.413q-.128,2.187-.265,4.375c-.019.306-.064.612-.107.916-.027.188-.061.434-.29.427-.319-.01-.277-.3-.285-.525S114.1,130.241,114.1,130.194Zm5.006-18.081c.062-.791.068-1.371.159-1.937.441-2.73.89-5.459,1.369-8.182a11.9,11.9,0,0,1,.722-2.545,3.233,3.233,0,0,1,2.792-2.1,24.146,24.146,0,0,1,2.873-.2c3.037-.006,6.075-.03,9.112-.047.384,0,.769,0,1.153.008a2.889,2.889,0,0,1,2.135.986,9.232,9.232,0,0,1,1.459,2.2,28.147,28.147,0,0,1,1.669,4.292,48.51,48.51,0,0,1,1.385,5.707c.026.145.016.331.178.392.229.087.344-.117.461-.254a26.269,26.269,0,0,0,1.784-2.264,28.227,28.227,0,0,0,4.24-10.146c.248-1.164.463-2.336.677-3.508a.769.769,0,0,1,.763-.718c.536-.039,1.073-.1,1.61-.107a7.022,7.022,0,0,0,5.59-2.775,5.965,5.965,0,0,0,.977-6.287,7.069,7.069,0,0,0-5.23-4.281,8.571,8.571,0,0,0-1.943-.22c-.49-.006-.686-.227-.74-.707-.021-.19,0-.384-.015-.576a41.655,41.655,0,0,0-1.232-8.193,15.422,15.422,0,0,0-2.329-5.235,8.429,8.429,0,0,0-4.961-3.336,17.393,17.393,0,0,0-3.992-.507c-1.768-.024-3.542-.191-5.3-.086-2.148.128-4.3.107-6.446.338s-4.292.314-6.432.526a22.259,22.259,0,0,0-4.826,1.074,6.438,6.438,0,0,0-3.752,3.216,14.291,14.291,0,0,0-1.156,2.884,68.031,68.031,0,0,0-1.66,7.887c-.115.718-.245,1.434-.386,2.149a.649.649,0,0,1-.736.577,6.654,6.654,0,0,0-1.829.2,7.243,7.243,0,0,0-4.73,3.225,5.928,5.928,0,0,0-.938,4.179,6.685,6.685,0,0,0,3.932,5.205,7.542,7.542,0,0,0,4.8.765,2.215,2.215,0,0,1,.46-.024c.5.011.7.145.814.638.175.748.32,1.5.472,2.255a45.786,45.786,0,0,0,4.175,11.808A15.7,15.7,0,0,0,119.11,112.113ZM131.233,100.7v0c-1,0-2,.011-3,0a12.645,12.645,0,0,0-2.175.176,2.742,2.742,0,0,0-2.421,2c-.045.147-.1.29-.144.438a41.1,41.1,0,0,0-1.034,4.482c-.3,1.82-.393,3.66-.521,5.5-.041.587-.042.612.526.842a16.06,16.06,0,0,0,5.707,1.222,36.539,36.539,0,0,0,6.769-.45,22.556,22.556,0,0,0,4.982-1.371c.475-.2.524-.281.434-.787-.4-2.228-.824-4.452-1.394-6.643a21.253,21.253,0,0,0-1.361-3.786,2.649,2.649,0,0,0-2.455-1.6c-.307-.015-.614-.008-.921-.009Z" transform="translate(-71.717 -48.951)" fill="#202f43"/>
          <path id="Path_15002" data-name="Path 15002" d="M169.825,177.506c.864.642,1.75,1.256,2.6,1.922q3.216,2.536,6.4,5.11c.693.557.733.77.4,1.582-.044.107-.092.212-.143.314-.569,1.134-1.1,2.291-1.718,3.395-2.02,3.587-3.8,7.294-5.665,10.961-1.18,2.324-2.223,4.718-3.511,6.987h.692c.466-.878.93-1.757,1.369-2.65,2.541-5.175,5.04-10.372,7.851-15.41a38.791,38.791,0,0,0,1.809-3.734,1.273,1.273,0,0,0-.4-1.642c-.389-.314-.775-.631-1.155-.955a.267.267,0,0,1-.03-.406c.123-.148.253-.289.382-.431,1.011-1.108,2.026-2.212,3.033-3.323a7.805,7.805,0,0,0,.655-.8.968.968,0,0,0-.064-1.448c-.857-.986-1.741-1.95-2.617-2.921a1.576,1.576,0,0,0-.256-.229.246.246,0,0,0-.313-.006.208.208,0,0,0-.057.3c.161.215.328.425.5.625.737.837,1.486,1.663,2.216,2.506.383.443.392.519,0,.984q-1.851,2.213-3.879,4.268c-.268.272-.35.277-.682.015-.723-.573-1.422-1.178-2.153-1.741q-2.329-1.8-4.684-3.558a1.311,1.311,0,0,0-.8-.4c-.069.037-.157.056-.194.11a.22.22,0,0,0-.01.2A3.221,3.221,0,0,0,169.825,177.506Z" transform="translate(-92.396 -87.312)" fill="#202f43"/>
          <path id="Path_15003" data-name="Path 15003" d="M104.518,178.124c.656.754,1.338,1.485,2.007,2.228.18.2.36.4.525.612a.285.285,0,0,1-.108.472c-.714.375-1.434.74-2.151,1.109-.308.158-.627.3-.918.481a.743.743,0,0,0-.341.744c.069.281.127.625.239.95.438,1.271.895,2.536,1.34,3.8,2.2,6.271,4.421,12.538,6.293,18.918h.625c-.024-.086-.048-.171-.069-.257-.471-1.9-1.128-3.752-1.752-5.608-1.716-5.1-3.366-10.219-5.293-15.244-.206-.537-.353-1.1-.535-1.643-.455-1.372-.107-1.231.736-1.651q4.079-2.034,7.987-4.378c.361-.217.707-.46,1.051-.7a.186.186,0,0,0,.012-.294.3.3,0,0,0-.2-.1,2,2,0,0,0-.82.394c-1.6.916-3.2,1.836-4.809,2.739-.4.225-.533.207-.807-.109-1.059-1.218-2.248-2.322-3.209-3.627-.667-.906-.67-.9.136-1.629.285-.257.585-.5.852-.777a19.478,19.478,0,0,1,1.78-1.459.233.233,0,0,0,.033-.31.229.229,0,0,0-.3-.087,5.472,5.472,0,0,0-1.326.91c-.571.516-1.111,1.07-1.715,1.543-.951.743-.758.925-.249,1.693A12.456,12.456,0,0,0,104.518,178.124Z" transform="translate(-72.396 -86.977)" fill="#202f43"/>
          <path id="Path_15004" data-name="Path 15004" d="M148.292,186.89a13.785,13.785,0,0,0,3.646-1.944c.537-.372.964-.485.975-.272.022.432-.366.556-.632.749a14.818,14.818,0,0,1-2.466,1.487,40.451,40.451,0,0,1-4.884,2.059,26.2,26.2,0,0,1-4.168.882,33.668,33.668,0,0,1-7.477.262,26.759,26.759,0,0,1-8.778-2.255,3.218,3.218,0,0,1-.989-.577.31.31,0,0,1-.053-.294.322.322,0,0,1,.293-.1c.391.159.761.366,1.152.526.6.247,1.217.474,1.829.7.168.062.28,0,.339-.188.212-.658.435-1.313.655-1.969.085-.255.167-.511.259-.764.058-.16.2-.274.35-.216s.172.238.144.4a3.389,3.389,0,0,1-.1.448c-.224.695-.447,1.39-.683,2.081-.157.457-.168.459.31.625a18.58,18.58,0,0,0,3.591.818,29.4,29.4,0,0,0,7.59.1,30.179,30.179,0,0,0,5.983-1.175,15.846,15.846,0,0,0,3.142-1.4Z" transform="translate(-78.646 -90.632)" fill="#202f43"/>
          <path id="Path_15005" data-name="Path 15005" d="M135.922,183a29.437,29.437,0,0,1-10.787-2.053,11.139,11.139,0,0,1-2.257-1.141,1.3,1.3,0,0,1-.563-.558.228.228,0,0,1,.071-.3.252.252,0,0,1,.206-.03c.492.3.957.641,1.466.905a22.486,22.486,0,0,0,4.534,1.651,31.84,31.84,0,0,0,6.935,1.01,25.139,25.139,0,0,0,6.044-.718,40.386,40.386,0,0,0,10.636-3.99c.339-.176.684-.342,1.038-.483.067-.028.216.06.28.134a.21.21,0,0,1-.053.3,3.326,3.326,0,0,1-.484.308,44.131,44.131,0,0,1-8.905,3.719,44.709,44.709,0,0,1-6.318,1.24A16.651,16.651,0,0,1,135.922,183Z" transform="translate(-78.29 -88.392)" fill="#202f43"/>
          <path id="Path_15006" data-name="Path 15006" d="M125.508,186.709c-.033-.067-.141-.18-.119-.256a12.243,12.243,0,0,1,1.049-2.642c.049-.088.166-.194.284-.109.081.058.192.2.17.258-.34.887-.7,1.768-1.06,2.647A.228.228,0,0,1,125.508,186.709Z" transform="translate(-79.242 -90.357)" fill="#202f43"/>
          <path id="Path_15007" data-name="Path 15007" d="M154.617,187.22a.267.267,0,0,1-.181.267.344.344,0,0,1-.29-.12,1.622,1.622,0,0,1-.2-.536q-.182-1.073-.325-2.153a.329.329,0,0,1,.148-.277.271.271,0,0,1,.333.233C154.281,185.494,154.447,186.358,154.617,187.22Z" transform="translate(-87.921 -90.578)" fill="#202f43"/>
          <path id="Path_15008" data-name="Path 15008" d="M158.82,186.478a.576.576,0,0,1-.519-.389c-.242-.839-.465-1.683-.677-2.53a.3.3,0,0,1,.149-.261.316.316,0,0,1,.283.123c.2.575.387,1.154.537,1.742a2.444,2.444,0,0,1,.2,1.336Z" transform="translate(-89.15 -90.241)" fill="#202f43"/>
          <path id="Path_15009" data-name="Path 15009" d="M133.272,188.326c.205-.719.409-1.457.635-2.189a.321.321,0,0,1,.265-.153c.187.019.233.188.2.344q-.278,1.236-.583,2.466c-.012.048-.115.1-.175.1a.24.24,0,0,1-.182-.108A3.762,3.762,0,0,1,133.272,188.326Z" transform="translate(-81.666 -91.067)" fill="#202f43"/>
          <path id="Path_15010" data-name="Path 15010" d="M149.7,185.744c.076-.084.132-.193.222-.238.206-.1.3.093.316.215.127.789.233,1.581.329,2.374a.191.191,0,0,1-.216.206.312.312,0,0,1-.19-.09.7.7,0,0,1-.153-.3C149.892,187.195,149.8,186.477,149.7,185.744Z" transform="translate(-86.713 -90.912)" fill="#202f43"/>
          <path id="Path_15011" data-name="Path 15011" d="M138.067,187.05c-.085.553-.2,1.343-.335,2.13a.219.219,0,0,1-.245.187.247.247,0,0,1-.206-.226,1,1,0,0,1-.029-.339c.1-.753.213-1.506.333-2.257a.261.261,0,0,1,.321-.235c.073.019.121.172.157.274A2.367,2.367,0,0,1,138.067,187.05Z" transform="translate(-82.887 -91.165)" fill="#202f43"/>
          <path id="Path_15012" data-name="Path 15012" d="M145.28,187.532c.021-.443-.094-.749.031-1.046a.192.192,0,0,1,.343-.031,1.26,1.26,0,0,1,.145.423q.084.856.132,1.716c.009.154-.048.321-.237.335a.3.3,0,0,1-.3-.284C145.335,188.23,145.307,187.811,145.28,187.532Z" transform="translate(-85.348 -91.184)" fill="#202f43"/>
          <path id="Path_15013" data-name="Path 15013" d="M142.151,188.2c-.031.418-.057.835-.1,1.251,0,.044-.1.091-.16.116a.132.132,0,0,1-.185-.093.964.964,0,0,1-.109-.317q.023-1.034.078-2.066c.008-.15.078-.32.258-.328.286-.013.246.235.255.4.018.344,0,.688,0,1.033Z" transform="translate(-84.224 -91.308)" fill="#202f43"/>
          <path id="Path_15014" data-name="Path 15014" d="M162.306,181.59a.214.214,0,0,1,.27.118,6.117,6.117,0,0,1,.582,2.191c0,.053-.075.139-.134.165a.221.221,0,0,1-.289-.11,9.655,9.655,0,0,1-.595-2.2C162.134,181.712,162.238,181.654,162.306,181.59Z" transform="translate(-90.538 -89.712)" fill="#202f43"/>
          <path id="Path_15015" data-name="Path 15015" d="M157.262,90.8a7.588,7.588,0,0,1,2.612.318,3.45,3.45,0,0,1,2.371,2.309,2.553,2.553,0,0,1-.892,2.971,4.832,4.832,0,0,1-1.411.759,11.39,11.39,0,0,1-6.563.175,5.267,5.267,0,0,1-1.56-.72,2.537,2.537,0,0,1-.277-4.122,6.1,6.1,0,0,1,1.671-.993A10.126,10.126,0,0,1,157.262,90.8Zm4.543,3.493a2.86,2.86,0,0,0-2.311-2.656.209.209,0,0,0-.242.275c.084.254.189.5.27.756a6.452,6.452,0,0,1,.352,2.6c-.034.341-.128.675-.181,1.014-.028.181.062.3.254.236a3.344,3.344,0,0,0,1.34-.861A1.928,1.928,0,0,0,161.805,94.292Zm-10.616.217a2.118,2.118,0,0,0,1.219,1.742,1.214,1.214,0,0,0,.323.064,1.072,1.072,0,0,0,.052-.316,6.573,6.573,0,0,1,.141-2.953c.069-.222.375-.507.066-.7-.174-.111-.414.136-.6.256a2.989,2.989,0,0,0-.842.77A1.783,1.783,0,0,0,151.19,94.509Z" transform="translate(-86.995 -61.81)" fill="#202f43"/>
          <path id="Path_15016" data-name="Path 15016" d="M124.876,90.8a10.069,10.069,0,0,1,4.053.713,5.773,5.773,0,0,1,1.746,1.086,2.522,2.522,0,0,1-.157,3.833,5.552,5.552,0,0,1-2.509,1.083,11.965,11.965,0,0,1-5.352-.189,5.649,5.649,0,0,1-1.856-.889,2.555,2.555,0,0,1-.934-3.056,3.456,3.456,0,0,1,2.4-2.277A7.8,7.8,0,0,1,124.876,90.8Zm3.268,6.01a4.049,4.049,0,0,0,1.968-.836,1.852,1.852,0,0,0,.179-2.909,3.985,3.985,0,0,0-1.235-.832c-.133-.06-.319-.146-.421-.1-.156.074-.057.259-.028.408a7.053,7.053,0,0,1,.185,2.505A9.571,9.571,0,0,1,128.144,96.809Zm-7.851-2.424a2.294,2.294,0,0,0,1.628,2c.184.055.329-.134.244-.377a4.753,4.753,0,0,1,.346-3.974c.054-.1.116-.214-.013-.294a.3.3,0,0,0-.211,0A2.8,2.8,0,0,0,120.293,94.385Z" transform="translate(-77.493 -61.81)" fill="#202f43"/>
          <path id="Path_15017" data-name="Path 15017" d="M158.469,85.442c-1.3-.051-2.6-.095-3.9-.157-.646-.03-.79-.123-.828-.707-.062-.953-.068-1.912-.065-2.868,0-.37.254-.54.63-.465a6.2,6.2,0,0,1,.881.251,59.04,59.04,0,0,0,6.879,1.8c.41.094.828.159,1.23.278a.581.581,0,0,1,.435.876c-.053.143-.121.281-.181.422a1,1,0,0,1-1.176.686C161.078,85.357,159.768,85.541,158.469,85.442Z" transform="translate(-87.936 -58.871)" fill="#202f43"/>
          <path id="Path_15018" data-name="Path 15018" d="M129.267,84.909c0,.409.015.564,0,.715a.835.835,0,0,1-.779.846,5.266,5.266,0,0,1-.573.051c-1.682.108-3.365.193-5.035.433-.719.1-1.436.22-2.153.339a.423.423,0,0,1-.522-.322,2.872,2.872,0,0,1-.049-1.252.59.59,0,0,1,.313-.456,2.594,2.594,0,0,1,.309-.15c2.088-.756,4.128-1.649,6.257-2.294a3.793,3.793,0,0,1,1.229-.269c.416.013.673.166.746.568C129.13,83.795,129.206,84.48,129.267,84.909Z" transform="translate(-77.62 -59.277)" fill="#202f43"/>
          <path id="Path_15019" data-name="Path 15019" d="M142.866,108.859c.731,0,1.462,0,2.192,0a2.44,2.44,0,0,0,1.013-.183,1.065,1.065,0,0,0,.71-1.074,18.159,18.159,0,0,0-.385-3.086c-.446-2.261-.94-4.512-1.4-6.771-.267-1.317-.5-2.641-.747-3.963a1.78,1.78,0,0,1-.026-.458c.012-.155.071-.316.259-.32a.247.247,0,0,1,.228.213,5.5,5.5,0,0,1,.142.558c.373,2.627,1.029,5.2,1.565,7.792.388,1.881.74,3.768.964,5.677a1.744,1.744,0,0,1-1.38,2.077,6.866,6.866,0,0,1-2.289.2c-1.113-.051-2.225-.152-3.339-.17-.862-.015-1.205-.293-1.482-1.162a4.96,4.96,0,0,1-.221-1.245,20.236,20.236,0,0,1,.077-3.34c.136-1.182.2-2.374.3-3.56.188-2.183.434-4.36.468-6.553a.889.889,0,0,1,.053-.339c.041-.09.1-.241.245-.172a.427.427,0,0,1,.22.218,1.552,1.552,0,0,1,.044.455,48.67,48.67,0,0,1-.365,5.518c-.121,1.108-.2,2.219-.292,3.33-.071.842-.125,1.686-.205,2.527a10.168,10.168,0,0,0,.184,2.755c.138.771.439,1.022,1.16,1,.768-.019,1.538,0,2.306,0Z" transform="translate(-83.316 -62.476)" fill="#202f43"/>
          <path id="Path_15020" data-name="Path 15020" d="M109.3,98.163c.081.073.185.131.229.219a.213.213,0,0,1-.13.281c-.282.121-.58.2-.863.321a3.5,3.5,0,0,0-2.187,3.352,2.906,2.906,0,0,0,.919,2.042c.138.132.306.231.454.355.271.226.346.439.206.556-.188.156-.364.064-.526-.036a3.388,3.388,0,0,1-1.7-3.305,4.152,4.152,0,0,1,3.127-3.725A3.376,3.376,0,0,1,109.3,98.163Z" transform="translate(-73.187 -64.076)" fill="#202f43"/>
          <path id="Path_15021" data-name="Path 15021" d="M180.931,102.23a3.438,3.438,0,0,0-2.191-3.239c-.283-.118-.582-.2-.862-.323a.211.211,0,0,1-.116-.286.384.384,0,0,1,.258-.175,1.793,1.793,0,0,1,.566.064,4.207,4.207,0,0,1,3,3.589,3.457,3.457,0,0,1-1.713,3.413.778.778,0,0,1-.322.1.269.269,0,0,1-.2-.083.217.217,0,0,1-.015-.307c.161-.161.341-.3.517-.449A2.725,2.725,0,0,0,180.931,102.23Z" transform="translate(-95.332 -64.089)" fill="#202f43"/>
          <path id="Path_15022" data-name="Path 15022" d="M140.979,128.295a19.2,19.2,0,0,1-3.093-.452,4.224,4.224,0,0,1-.643-.245.27.27,0,0,1-.159-.368.363.363,0,0,1,.29-.128,2.106,2.106,0,0,1,.443.113,12.378,12.378,0,0,0,8.213-.544c.353-.148.7-.307,1.063-.432a.323.323,0,0,1,.292.111.346.346,0,0,1-.055.3.734.734,0,0,1-.277.195A14.372,14.372,0,0,1,140.979,128.295Z" transform="translate(-82.829 -72.703)" fill="#202f43"/>
          <path id="Path_15023" data-name="Path 15023" d="M142.009,131.413a3.189,3.189,0,0,1-1.388-.206c-.089-.054-.2-.127-.142-.269a.275.275,0,0,1,.253-.193,1.127,1.127,0,0,1,.227.018,8.4,8.4,0,0,0,3.414-.2c.449-.1.893-.215,1.342-.306.21-.043.506-.145.561.165.053.293-.258.345-.468.394A15.04,15.04,0,0,1,142.009,131.413Z" transform="translate(-83.876 -73.922)" fill="#202f43"/>
        </g>
      </g>
    </g>
  </g>
</svg>
