<svg xmlns="http://www.w3.org/2000/svg" xmlns:xlink="http://www.w3.org/1999/xlink" width="142" height="142" viewBox="0 0 142 142">
  <defs>
    <clipPath id="clip-path">
      <rect id="Rectangle_925" data-name="Rectangle 925" width="142" height="142" rx="71" transform="translate(168 425)" fill="#fff"/>
    </clipPath>
  </defs>
  <g id="Group_13272" data-name="Group 13272" transform="translate(-469 -425)" opacity="0.5">
    <rect id="Rectangle_924" data-name="Rectangle 924" width="142" height="142" rx="71" transform="translate(469 425)" fill="#f2f2f2"/>
    <g id="Mask_Group_6" data-name="Mask Group 6" transform="translate(301)" clip-path="url(#clip-path)">
      <g id="Group_13273" data-name="Group 13273" transform="translate(-106.254 161.969)">
        <g id="Group_13272-2" data-name="Group 13272" transform="translate(282.379 284.066)">
          <path id="Path_14985" data-name="Path 14985" d="M344.844,444.658q-22.658,0-45.316,0c-5.1,0-10.2.03-15.292.046-.337,0-.675.011-1.012-.005-.657-.034-.935-.383-.818-1.034s.227-1.329.392-1.982c.725-2.866,1.291-5.774,2.263-8.575a29.766,29.766,0,0,1,2.312-5.11,12.755,12.755,0,0,1,5.014-5.019c3.98-2.167,7.963-4.324,12.074-6.237q5.194-2.416,10.384-4.839a44.773,44.773,0,0,1,5.1-2.054c1.924-.626,3.8-1.378,5.687-2.1.7-.267.887-.212,1.335.367a4.07,4.07,0,0,1,.3.471,36.046,36.046,0,0,0,4.513,6.152,103.718,103.718,0,0,1,6.693,8.317,25.213,25.213,0,0,0,5.554,5.532,12.762,12.762,0,0,0,1.233.777,1.2,1.2,0,0,0,1.283-.023,9.146,9.146,0,0,0,.937-.615q1.592-1.25,3.052-2.655A114.694,114.694,0,0,0,360.575,415c1.619-2.015,3.291-3.989,4.94-5.98.119-.144.242-.287.373-.42.685-.689.7-.689,1.661-.383,5,1.6,9.822,3.647,14.644,5.7a115.424,115.424,0,0,1,11.32,5.473,26.41,26.41,0,0,1,4.878,3.4,19.094,19.094,0,0,1,4.31,5.842,52.161,52.161,0,0,1,4.624,14.734,2.943,2.943,0,0,1,.043.333.578.578,0,0,1-.571.688,9.255,9.255,0,0,1-1.121.042q-9.334.006-18.667.008c-5.66.008-11.32-.024-16.979.06C361.635,444.62,353.239,444.544,344.844,444.658Z" transform="translate(-282.379 -324.246)" fill="#e18581"/>
          <path id="Path_14986" data-name="Path 14986" d="M392.547,323.089a7.014,7.014,0,0,0-2.739-5.209c-.52-.425-1.2-.6-1.626-1.14.2-.648.432-1.275.58-1.93a43,43,0,0,0,.992-10.222,32.141,32.141,0,0,0-.351-5.081,33.466,33.466,0,0,0-4.082-11.7,14.851,14.851,0,0,0-1.761-2.463,6.673,6.673,0,0,0-.884-.864,1.343,1.343,0,0,0-2.193.364,7.834,7.834,0,0,0-.654,1.3,4.882,4.882,0,0,1-2.928,2.766,6.557,6.557,0,0,1-2.409.459,27.153,27.153,0,0,1-3.468-.317c-1.781-.236-3.569-.432-5.351-.648-1.3-.155-2.6-.3-3.9-.486a48.723,48.723,0,0,0-5.951-.25,26.423,26.423,0,0,0-6.9.816c-5.749,1.437-9.669,5.04-12.186,10.283a20.83,20.83,0,0,0-1.808,8.509,19.438,19.438,0,0,0,1.957,8.8c.155.337.472.675.452,1-.02.432-.567.533-.884.789a6.825,6.825,0,0,0-2.24,8.043,7.444,7.444,0,0,0,4.885,4.325,19,19,0,0,0,1.862.4c.445.094.479.135.439.6a28.191,28.191,0,0,0,.283,7.382,19.969,19.969,0,0,0,5.384,10.9,1.542,1.542,0,0,1,.459,1.309c-.067.9-.128,1.795-.189,2.692-.142,2.314-.29,4.629-.432,6.95-.1,1.606-.216,3.212-.277,4.824a1.089,1.089,0,0,1-.945,1.167c-.614.162-1.2.4-1.8.621a.233.233,0,0,0-.142.351.306.306,0,0,0,.283.115c.789-.229,1.565-.5,2.362-.715a.977.977,0,0,0,.8-1.046c.047-1.349.148-2.692.236-4.042.148-2.355.29-4.71.439-7.065.081-1.194.155-2.4.236-3.59.02-.324.175-.4.432-.236a2.568,2.568,0,0,1,.27.2c.843.681,1.653,1.41,2.537,2.038a42.58,42.58,0,0,0,9.251,5.276c1.5.58,3.016,1.107,4.541,1.633a35.584,35.584,0,0,0,5.378,1.579c1.248.223,2.517.391,3.772.547a22.412,22.412,0,0,0,4.251.351c.236-.013.317.162.331.358.074,1.012.148,2.017.216,3.03a.913.913,0,0,0,.351.776,9.225,9.225,0,0,0,3.138,1.471.266.266,0,0,0,.351-.182.253.253,0,0,0-.189-.344,10.454,10.454,0,0,1-2.085-.816,1.49,1.49,0,0,1-1.026-1.565,1.867,1.867,0,0,0-.007-.337c-.1-1.91-.2-3.819-.317-5.722q-.273-4.15-.58-8.293a1.653,1.653,0,0,1,.52-1.4,19.162,19.162,0,0,0,4.689-8.083,28.886,28.886,0,0,0,1.026-9.338c-.014-.432-.351-.972.02-1.268.317-.25.85-.209,1.289-.3a7.962,7.962,0,0,0,4.669-2.712A6.575,6.575,0,0,0,392.547,323.089Zm-2.1,4.278a7.528,7.528,0,0,1-4.838,2.6c-.182.027-.371.02-.56.047-.742.108-.857.236-.81,1.032a36.7,36.7,0,0,1,.013,5.169,20.673,20.673,0,0,1-4.44,11.68,18.021,18.021,0,0,1-9.21,5.917,25.522,25.522,0,0,1-7.591.911,23.935,23.935,0,0,1-8.374-1.235,19.769,19.769,0,0,1-4.946-2.584c-4.008-2.82-6.14-6.761-7.213-11.39a24.532,24.532,0,0,1-.526-7.26c.04-.526.047-1.053.074-1.572a.53.53,0,0,0-.439-.574,7.535,7.535,0,0,0-.884-.135,7.521,7.521,0,0,1-4.474-2.132,6.171,6.171,0,0,1,.169-9.1,7.185,7.185,0,0,1,4.892-1.964,1.358,1.358,0,0,0,1.275-.688A17.591,17.591,0,0,0,344.9,310.4c.115-.472.189-.958.283-1.437s.2-.951.29-1.424c.526.041.8.493,1.194.736a10.818,10.818,0,0,0,6.4,1.734,9.413,9.413,0,0,0,1.977-.391,29.064,29.064,0,0,0,6.93-2.868,19.758,19.758,0,0,1,5.135-2.233,11.007,11.007,0,0,1,2.652-.4,6.618,6.618,0,0,1,3.819,1.127,39.5,39.5,0,0,1,4.042,3.219c.594.513,1.215,1,1.842,1.478a6.362,6.362,0,0,0,1.916.918.819.819,0,0,1,.641.681c.108.587.256,1.174.4,1.754a9.81,9.81,0,0,0,1,2.611,1.64,1.64,0,0,0,1.552.87,7.118,7.118,0,0,1,5.425,2.544A6.124,6.124,0,0,1,390.449,327.367Z" transform="translate(-299.069 -284.066)" fill="#39323a"/>
          <path id="Path_14987" data-name="Path 14987" d="M365.726,435.414a8.782,8.782,0,0,1-1.663-.365,12.028,12.028,0,0,1-3.206-1.83,48.6,48.6,0,0,1-5.272-4.884,86.494,86.494,0,0,1-7.594-9.168c-1.59-2.179-3.163-4.369-4.9-6.434a3.21,3.21,0,0,1-.686-1.018c-.024-.073.064-.2.132-.277a.205.205,0,0,1,.2-.005,2.853,2.853,0,0,1,.393.388q2.638,3.214,5.06,6.6a83.5,83.5,0,0,0,10.073,11.764,34.541,34.541,0,0,0,3.323,2.853,10.913,10.913,0,0,0,2.751,1.5,3.274,3.274,0,0,0,3.287-.469,33.236,33.236,0,0,0,3.317-2.86A177.284,177.284,0,0,0,385.2,415.329q1.474-1.843,2.941-3.692c.138-.173.252-.381.483-.448a.243.243,0,0,1,.2.053c.046.042.1.149.074.188a5.879,5.879,0,0,1-.474.752c-1.445,1.818-2.886,3.64-4.353,5.44a172.733,172.733,0,0,1-12.455,13.728,34.794,34.794,0,0,1-3.368,2.973,4.678,4.678,0,0,1-1.88.972C366.149,435.339,365.928,435.376,365.726,435.414Z" transform="translate(-301.901 -325.413)" fill="#39323a"/>
          <path id="Path_14988" data-name="Path 14988" d="M424.593,459.605a.907.907,0,0,1-.036.24.219.219,0,0,1-.156.119.25.25,0,0,1-.191-.081.678.678,0,0,1-.136-.295c-.121-.889-.238-1.778-.341-2.669a.493.493,0,0,1,.1-.306c.061-.086.176-.158.277-.045a.582.582,0,0,1,.162.279C424.385,457.736,424.481,458.627,424.593,459.605Z" transform="translate(-328.355 -340.155)" fill="#39323a"/>
          <path id="Path_14989" data-name="Path 14989" d="M327.618,457.422c.057-.435.136-1.057.227-1.678.009-.06.109-.163.133-.155.1.035.219.088.254.169a.943.943,0,0,1,.065.43q-.083,1.1-.2,2.206a.236.236,0,0,1-.3.231.326.326,0,0,1-.174-.236C327.6,458.133,327.618,457.873,327.618,457.422Z" transform="translate(-297.092 -339.855)" fill="#39323a"/>
          <path id="Path_14990" data-name="Path 14990" d="M394.241,335.148a3.59,3.59,0,0,0-3.09-2.416,10.808,10.808,0,0,0-5.3.418,5.955,5.955,0,0,0-2.125,1.208,2.452,2.452,0,0,0,.128,3.731,5.439,5.439,0,0,0,1.37.756,7.544,7.544,0,0,0,2.888.459,5.906,5.906,0,0,0,1.977-.04,6.584,6.584,0,0,0,3.232-1.147A2.47,2.47,0,0,0,394.241,335.148Zm-.439,1.174a1.958,1.958,0,0,1-.789,1.309,4.108,4.108,0,0,1-2.1.823,4.586,4.586,0,0,0,.621-1.174,4.174,4.174,0,0,0-.142-2.847c-.1-.243-.209-.479-.29-.729a.2.2,0,0,1,.209-.29A2.758,2.758,0,0,1,393.8,336.323Z" transform="translate(-315.081 -299.843)" fill="#39323a"/>
          <path id="Path_14991" data-name="Path 14991" d="M362.823,334.5a5.2,5.2,0,0,0-1.66-1.113,10.72,10.72,0,0,0-4.818-.789,7.358,7.358,0,0,0-2.085.4,3.356,3.356,0,0,0-1.991,1.856,2.5,2.5,0,0,0,.931,3.333,5.241,5.241,0,0,0,1.08.587,9.461,9.461,0,0,0,3.623.56c.445-.02.9-.034,1.343-.061a6.518,6.518,0,0,0,2.672-.762,3.683,3.683,0,0,0,.891-.661A2.448,2.448,0,0,0,362.823,334.5Zm-.8,3.252a4.789,4.789,0,0,1-1.957.8c-.162.027-.29-.068-.223-.263a6.8,6.8,0,0,0-.216-4.757,5.059,5.059,0,0,1,2.551,1.174A1.83,1.83,0,0,1,362.027,337.754Z" transform="translate(-305.018 -299.844)" fill="#39323a"/>
          <path id="Path_14992" data-name="Path 14992" d="M392.6,324.88a3.276,3.276,0,0,0-.587-.52c-.378-.25-.762-.479-1.154-.695a36.715,36.715,0,0,0-6.9-2.665,2.571,2.571,0,0,0-.439-.1.57.57,0,0,0-.587.425,1.4,1.4,0,0,0-.02.445c.148,1.113.31,2.22.466,3.333a.72.72,0,0,0,.708.722c.455.038.906.108,1.362.122a.36.36,0,0,0,.418.009c.828.011,1.656,0,2.484,0v.067h2.692a10.26,10.26,0,0,0,1.12-.027C392.846,325.905,393.034,325.393,392.6,324.88Zm-7.7.459c-.8-.027-.951.108-1.059-.9-.094-.85-.243-1.694-.358-2.544-.034-.263.155-.418.425-.324.207.069.414.137.622.2a.312.312,0,0,0,0,.083q.358,1.741.718,3.482C385.129,325.341,385.013,325.343,384.9,325.339Zm1.039.014-.688-3.338c.58.19,1.159.382,1.733.584a.342.342,0,0,0,0,.065q.176,1.35.429,2.688C386.916,325.353,386.426,325.356,385.936,325.353Zm2.321.074v-.074h-.175c0-.016,0-.029,0-.046-.155-.814-.285-1.631-.4-2.451q.79.3,1.561.64a.349.349,0,0,0-.01.093c.036.4.08.789.135,1.181.029.207.043.445.094.661C389.062,325.429,388.66,325.426,388.257,325.426Zm1.916-.009a3,3,0,0,1-.161-.929c-.03-.221-.051-.444-.074-.666.337.167.669.348,1,.537a.342.342,0,0,0-.019.15l.078.91c-.273.005-.546.005-.818.007Zm1.486.055a.359.359,0,0,0,.008-.073c-.018-.211-.036-.422-.054-.633a1.214,1.214,0,0,1,.47.477A.513.513,0,0,1,391.659,325.473Z" transform="translate(-315.076 -296.046)" fill="#39323a"/>
          <path id="Path_14993" data-name="Path 14993" d="M361.529,325.323h-.047c0-.6.034-1.2-.007-1.795-.027-.439-.351-.628-.8-.506a6.593,6.593,0,0,0-1.167.391,27.98,27.98,0,0,0-5.27,3.192,13.246,13.246,0,0,0-1.154,1.073,2.37,2.37,0,0,0-.337.439.352.352,0,0,0,.216.533,3.576,3.576,0,0,0,1.228.007c1.113-.128,2.233-.25,3.34-.432,1.066-.169,2.132-.391,3.185-.641.655-.148.783-.344.81-1.026C361.542,326.147,361.529,325.735,361.529,325.323Zm-7.665,2.726c-.162-.027-.135-.175-.074-.25a3.478,3.478,0,0,1,.466-.479c.327-.267.671-.506,1.011-.752A12.37,12.37,0,0,0,355.1,328c-.262.024-.526.044-.791.051A2.461,2.461,0,0,1,353.864,328.049Zm3.036-.292c-.372.059-.744.115-1.117.165A11.33,11.33,0,0,1,356,326.23a.351.351,0,0,0-.011-.177c.462-.308.93-.606,1.41-.883-.2.839-.373,1.684-.5,2.538A.381.381,0,0,0,356.9,327.757Zm2.233-.36c-.206.043-.411.092-.62.119-.308.039-.616.086-.923.134a28.935,28.935,0,0,1,.583-2.843.3.3,0,0,0,0-.077c.406-.216.816-.424,1.234-.619q-.19,1.509-.379,3.018A.282.282,0,0,0,359.133,327.4Zm1.849-2.168h-.007c0,.412.013.823,0,1.228s-.108.533-.5.628c-.269.065-.538.134-.808.2a.336.336,0,0,0,.036-.107l.422-3.356a.313.313,0,0,0,0-.044c.829-.365.866-.312.86.891Z" transform="translate(-305.249 -296.725)" fill="#39323a"/>
          <path id="Path_14994" data-name="Path 14994" d="M373.106,349.165c-.636,0-1.273.02-1.908,0-.791-.032-1.062-.29-1.163-1.066a.383.383,0,0,1,.138-.279.2.2,0,0,1,.29.06c.219.831.876.786,1.516.785.824,0,1.648-.009,2.471,0a4.445,4.445,0,0,0,1.645-.311,2.329,2.329,0,0,0,1.66-2.809,18.286,18.286,0,0,0-.519-2.41c-.781-2.615-1.6-5.218-2.411-7.826-.055-.179-.132-.352-.174-.533-.067-.293-.431-.693,0-.854.329-.122.406.37.491.63.991,3.059,2.062,6.094,2.842,9.217a9.732,9.732,0,0,1,.351,2.548,2.472,2.472,0,0,1-1.128,2.084,3.939,3.939,0,0,1-2.194.767c-.636.012-1.272,0-1.908,0Z" transform="translate(-310.889 -300.275)" fill="#39323a"/>
          <path id="Path_14995" data-name="Path 14995" d="M341.943,336.67c.184.021.29.088.3.2,0,.1-.037.256-.1.286-.272.121-.568.186-.842.3a3.4,3.4,0,0,0-2.042,2.245,2.838,2.838,0,0,0,.918,3.138c.14.123.308.213.452.332.118.1.223.24.132.385-.119.186-.3.171-.491.071a3.456,3.456,0,0,1-1.643-3.949,3.978,3.978,0,0,1,2.945-2.949A3.235,3.235,0,0,1,341.943,336.67Z" transform="translate(-300.631 -301.176)" fill="#39323a"/>
          <path id="Path_14996" data-name="Path 14996" d="M414.282,340.158a3.541,3.541,0,0,1-1.615,3.418,1.077,1.077,0,0,1-.413.13.242.242,0,0,1-.179-.108.226.226,0,0,1-.028-.2,1.088,1.088,0,0,1,.3-.32c2.093-1.269,1.727-4.482-.785-5.586-.272-.119-.565-.19-.843-.3a.232.232,0,0,1-.141-.273.217.217,0,0,1,.22-.2,2.5,2.5,0,0,1,.552.056A3.938,3.938,0,0,1,414.282,340.158Z" transform="translate(-324.075 -301.192)" fill="#39323a"/>
          <path id="Path_14997" data-name="Path 14997" d="M380.054,363.516a.249.249,0,0,1-.218-.215.231.231,0,0,1,.171-.25c.246-.079.5-.148.749-.208a10.35,10.35,0,0,0,2.63-.911,6.477,6.477,0,0,0,3.059-3.283c.069-.172.118-.36.3-.455a.25.25,0,0,1,.2-.007.236.236,0,0,1,.121.169,1.8,1.8,0,0,1-.09.428,6.11,6.11,0,0,1-1.928,2.695,9.769,9.769,0,0,1-4.883,2.048A.412.412,0,0,1,380.054,363.516Z" transform="translate(-314.077 -308.168)" fill="#39323a"/>
          <path id="Path_14998" data-name="Path 14998" d="M389.633,363.321a1.1,1.1,0,0,1-.054.213,4.662,4.662,0,0,1-3.565,2.561.323.323,0,0,1-.281-.126.276.276,0,0,1,.193-.343,6.351,6.351,0,0,1,.623-.241,3.985,3.985,0,0,0,2.476-1.943,1.1,1.1,0,0,1,.3-.315.229.229,0,0,1,.2.02C389.577,363.181,389.6,363.262,389.633,363.321Z" transform="translate(-315.991 -309.777)" fill="#39323a"/>
        </g>
      </g>
    </g>
  </g>
</svg>
