<svg xmlns="http://www.w3.org/2000/svg" width="1142.5" height="821.23" viewBox="0 0 1142.5 821.23">
  <g id="illustration" transform="translate(-214.622 -99.886)">
    <g id="Group_13320" data-name="Group 13320" transform="translate(214.622 425.057)">
      <g id="Group_13300" data-name="Group 13300" transform="translate(0 69.108)">
        <g id="Group_13282" data-name="Group 13282" transform="translate(55.613 205.536)">
          <path id="Path_15024" data-name="Path 15024" d="M561.14,448.409l-328.369-189.7,2.628-.968L561.745,446.157Z" transform="translate(-232.771 -257.743)" fill="#d4d4d4"/>
        </g>
        <g id="Group_13283" data-name="Group 13283" transform="translate(97.894 181.998)">
          <rect id="Rectangle_926" data-name="Rectangle 926" width="2.231" height="376.83" transform="matrix(0.5, -0.866, 0.866, 0.5, 0, 1.932)" fill="#d4d4d4"/>
        </g>
        <g id="Group_13284" data-name="Group 13284" transform="translate(138.663 158.459)">
          <rect id="Rectangle_927" data-name="Rectangle 927" width="2.231" height="376.831" transform="matrix(0.5, -0.866, 0.866, 0.5, 0, 1.932)" fill="#d4d4d4"/>
        </g>
        <g id="Group_13285" data-name="Group 13285" transform="translate(179.432 134.922)">
          <rect id="Rectangle_928" data-name="Rectangle 928" width="2.23" height="376.831" transform="matrix(0.5, -0.866, 0.866, 0.5, 0, 1.932)" fill="#d4d4d4"/>
        </g>
        <g id="Group_13286" data-name="Group 13286" transform="translate(220.201 111.384)">
          <rect id="Rectangle_929" data-name="Rectangle 929" width="2.231" height="376.831" transform="translate(0 1.932) rotate(-60)" fill="#d4d4d4"/>
        </g>
        <g id="Group_13287" data-name="Group 13287" transform="translate(260.971 87.846)">
          <rect id="Rectangle_930" data-name="Rectangle 930" width="2.231" height="376.829" transform="matrix(0.5, -0.866, 0.866, 0.5, 0, 1.932)" fill="#d4d4d4"/>
        </g>
        <g id="Group_13288" data-name="Group 13288" transform="translate(301.738 64.306)">
          <rect id="Rectangle_931" data-name="Rectangle 931" width="2.231" height="376.832" transform="matrix(0.5, -0.866, 0.866, 0.5, 0, 1.932)" fill="#d4d4d4"/>
        </g>
        <g id="Group_13289" data-name="Group 13289" transform="translate(342.507 40.769)">
          <rect id="Rectangle_932" data-name="Rectangle 932" width="2.231" height="376.831" transform="translate(0 1.932) rotate(-60)" fill="#d4d4d4"/>
        </g>
        <g id="Group_13290" data-name="Group 13290" transform="translate(383.277 16.958)">
          <path id="Path_15025" data-name="Path 15025" d="M666.045,386.822,339.7,198.408l.647-2.206L668.711,385.808Z" transform="translate(-339.702 -196.202)" fill="#d4d4d4"/>
        </g>
        <g id="Group_13291" data-name="Group 13291" transform="translate(383.355 205.468)">
          <path id="Path_15026" data-name="Path 15026" d="M340.354,448.455l-.627-2.318L666.075,257.721l2.583,1.1Z" transform="translate(-339.727 -257.721)" fill="#d4d4d4"/>
        </g>
        <g id="Group_13292" data-name="Group 13292" transform="translate(342.621 181.873)">
          <rect id="Rectangle_933" data-name="Rectangle 933" width="376.832" height="2.231" transform="matrix(0.866, -0.5, 0.5, 0.866, 0, 188.531)" fill="#d4d4d4"/>
        </g>
        <g id="Group_13293" data-name="Group 13293" transform="translate(301.863 158.315)">
          <rect id="Rectangle_934" data-name="Rectangle 934" width="376.833" height="2.231" transform="matrix(0.866, -0.5, 0.5, 0.866, 0, 188.571)" fill="#d4d4d4"/>
        </g>
        <g id="Group_13294" data-name="Group 13294" transform="translate(261.089 134.785)">
          <rect id="Rectangle_935" data-name="Rectangle 935" width="376.834" height="2.23" transform="matrix(0.866, -0.5, 0.5, 0.866, 0, 188.554)" fill="#d4d4d4"/>
        </g>
        <g id="Group_13295" data-name="Group 13295">
          <path id="Path_15027" data-name="Path 15027" d="M219.1,617.619h-4.477L956.84,190.668v2.573Z" transform="translate(-214.622 -190.668)" fill="#d4d4d4"/>
        </g>
        <g id="Group_13296" data-name="Group 13296" transform="translate(179.546 87.72)">
          <rect id="Rectangle_936" data-name="Rectangle 936" width="376.834" height="2.231" transform="translate(0 188.534) rotate(-30.021)" fill="#d4d4d4"/>
        </g>
        <g id="Group_13297" data-name="Group 13297" transform="translate(138.778 64.183)">
          <rect id="Rectangle_937" data-name="Rectangle 937" width="376.832" height="2.231" transform="matrix(0.866, -0.5, 0.5, 0.866, 0, 188.531)" fill="#d4d4d4"/>
        </g>
        <g id="Group_13298" data-name="Group 13298" transform="translate(98.015 40.633)">
          <rect id="Rectangle_938" data-name="Rectangle 938" width="376.834" height="2.232" transform="matrix(0.866, -0.5, 0.5, 0.866, 0, 188.554)" fill="#d4d4d4"/>
        </g>
        <g id="Group_13299" data-name="Group 13299" transform="translate(55.613 16.958)">
          <path id="Path_15028" data-name="Path 15028" d="M235.481,386.757l-2.709-1.009L561.082,196.2l.746,2.14Z" transform="translate(-232.771 -196.202)" fill="#d4d4d4"/>
        </g>
      </g>
      <g id="Group_13319" data-name="Group 13319" transform="translate(501.113)">
        <g id="Group_13301" data-name="Group 13301" transform="translate(0 188.578)">
          <path id="Path_15029" data-name="Path 15029" d="M706.526,420.322l-328.369-189.7,2.628-.968L707.13,418.07Z" transform="translate(-378.157 -229.656)" fill="#d4d4d4"/>
        </g>
        <g id="Group_13302" data-name="Group 13302" transform="translate(42.281 165.04)">
          <rect id="Rectangle_939" data-name="Rectangle 939" width="2.23" height="376.83" transform="translate(0 1.932) rotate(-60)" fill="#d4d4d4"/>
        </g>
        <g id="Group_13303" data-name="Group 13303" transform="translate(83.049 141.502)">
          <rect id="Rectangle_940" data-name="Rectangle 940" width="2.231" height="376.831" transform="translate(0 1.932) rotate(-60)" fill="#d4d4d4"/>
        </g>
        <g id="Group_13304" data-name="Group 13304" transform="translate(123.819 117.964)">
          <rect id="Rectangle_941" data-name="Rectangle 941" width="2.231" height="376.831" transform="matrix(0.5, -0.866, 0.866, 0.5, 0, 1.932)" fill="#d4d4d4"/>
        </g>
        <g id="Group_13305" data-name="Group 13305" transform="translate(164.588 94.426)">
          <rect id="Rectangle_942" data-name="Rectangle 942" width="2.231" height="376.831" transform="translate(0 1.932) rotate(-60)" fill="#d4d4d4"/>
        </g>
        <g id="Group_13306" data-name="Group 13306" transform="translate(205.357 70.888)">
          <rect id="Rectangle_943" data-name="Rectangle 943" width="2.231" height="376.829" transform="translate(0 1.932) rotate(-60)" fill="#d4d4d4"/>
        </g>
        <g id="Group_13307" data-name="Group 13307" transform="translate(246.125 47.348)">
          <rect id="Rectangle_944" data-name="Rectangle 944" width="2.23" height="376.832" transform="matrix(0.5, -0.866, 0.866, 0.5, 0, 1.932)" fill="#d4d4d4"/>
        </g>
        <g id="Group_13308" data-name="Group 13308" transform="translate(286.894 23.811)">
          <rect id="Rectangle_945" data-name="Rectangle 945" width="2.231" height="376.831" transform="translate(0 1.933) rotate(-60)" fill="#d4d4d4"/>
        </g>
        <g id="Group_13309" data-name="Group 13309" transform="translate(327.664)">
          <path id="Path_15030" data-name="Path 15030" d="M795.6,349.685,485.087,170.321l.647-2.206L798.269,348.671Z" transform="translate(-485.087 -168.115)" fill="#d4d4d4"/>
        </g>
        <g id="Group_13310" data-name="Group 13310" transform="translate(327.742 197.252)">
          <path id="Path_15031" data-name="Path 15031" d="M485.74,414.479l-.627-2.317L796.174,232.487l2.583,1.1Z" transform="translate(-485.113 -232.487)" fill="#d4d4d4"/>
        </g>
        <g id="Group_13311" data-name="Group 13311" transform="translate(287.014 164.904)">
          <rect id="Rectangle_946" data-name="Rectangle 946" width="376.832" height="2.23" transform="matrix(0.866, -0.5, 0.5, 0.866, 0, 188.553)" fill="#d4d4d4"/>
        </g>
        <g id="Group_13312" data-name="Group 13312" transform="translate(246.239 141.377)">
          <rect id="Rectangle_947" data-name="Rectangle 947" width="376.834" height="2.231" transform="matrix(0.866, -0.5, 0.5, 0.866, 0, 188.532)" fill="#d4d4d4"/>
        </g>
        <g id="Group_13313" data-name="Group 13313" transform="translate(205.464 117.847)">
          <rect id="Rectangle_948" data-name="Rectangle 948" width="376.834" height="2.231" transform="translate(0 188.515) rotate(-30.017)" fill="#d4d4d4"/>
        </g>
        <g id="Group_13314" data-name="Group 13314" transform="translate(183.919 10.628)">
          <path id="Path_15032" data-name="Path 15032" d="M442.654,434.428h-4.477L893.061,171.583v2.573Z" transform="translate(-438.177 -171.583)" fill="#d4d4d4"/>
        </g>
        <g id="Group_13315" data-name="Group 13315" transform="translate(123.944 70.744)">
          <rect id="Rectangle_949" data-name="Rectangle 949" width="376.834" height="2.231" transform="matrix(0.866, -0.5, 0.5, 0.866, 0, 188.571)" fill="#d4d4d4"/>
        </g>
        <g id="Group_13316" data-name="Group 13316" transform="translate(83.175 47.208)">
          <rect id="Rectangle_950" data-name="Rectangle 950" width="376.832" height="2.231" transform="matrix(0.866, -0.5, 0.5, 0.866, 0, 188.566)" fill="#d4d4d4"/>
        </g>
        <g id="Group_13317" data-name="Group 13317" transform="translate(42.413 23.657)">
          <rect id="Rectangle_951" data-name="Rectangle 951" width="376.834" height="2.231" transform="matrix(0.866, -0.5, 0.5, 0.866, 0, 188.593)" fill="#d4d4d4"/>
        </g>
        <g id="Group_13318" data-name="Group 13318">
          <path id="Path_15033" data-name="Path 15033" d="M380.866,358.67l-2.71-1.009,328.31-189.546.746,2.14Z" transform="translate(-378.157 -168.115)" fill="#d4d4d4"/>
        </g>
      </g>
    </g>
    <g id="Group_13573" data-name="Group 13573" transform="translate(396.17 210.451)">
      <path id="Path_15034" data-name="Path 15034" d="M550.3,245.428l-6.113,3.548a10.153,10.153,0,0,1-10.186.009L512.876,236.76a3.626,3.626,0,0,1,0-6.276l9.383-5.448a3.629,3.629,0,0,1,3.64,0l24.4,14.12A3.627,3.627,0,0,1,550.3,245.428Z" transform="translate(215.77 162.977)" fill="#d3d3d3"/>
      <path id="Path_15035" data-name="Path 15035" d="M314.047,232.332l-6.113,3.551a10.154,10.154,0,0,1-10.183.006l-21.131-12.223a3.626,3.626,0,0,1,0-6.276L286,211.939a3.63,3.63,0,0,1,3.637,0l24.4,14.12A3.626,3.626,0,0,1,314.047,232.332Z" transform="translate(-271.928 135.944)" fill="#d3d3d3"/>
      <path id="Path_15038" data-name="Path 15038" d="M973.958,419.622,711.681,571.95a39.584,39.584,0,0,1-39.695.043l-365.6-211.324a12.472,12.472,0,0,1-.024-21.585L582.228,178.863a12.481,12.481,0,0,1,12.508-.012l379.2,219.184A12.476,12.476,0,0,1,973.958,419.622Z" transform="translate(-219.608 65.197)" fill="#d5d5d5"/>
      <g id="Group_13336" data-name="Group 13336" transform="translate(78.504 7.014)">
        <g id="Group_13335" data-name="Group 13335">
          <g id="Group_13334" data-name="Group 13334">
            <g id="Group_13333" data-name="Group 13333">
              <g id="Group_13322" data-name="Group 13322" transform="translate(0.095)">
                <g id="Group_13321" data-name="Group 13321">
                  <path id="Path_15039" data-name="Path 15039" d="M881.838,285.923,619.874,437.764a.089.089,0,0,1-.1,0l-319.7-184.791a.1.1,0,0,1,0-.165L562.045,100.967a.089.089,0,0,1,.1,0l319.7,184.791A.1.1,0,0,1,881.838,285.923Z" transform="translate(-298.46 -99.162)" fill="#f2f2f2"/>
                  <path id="Path_15040" data-name="Path 15040" d="M620.988,440.757l-.855-.38L299.568,255.087l-.049-1.891.827-.536L563.083,100.369l.876.429,320.51,185.26.046,1.878-.827.555ZM304.134,254.1l316.75,183.087L879.9,287.05,563.153,103.963Z" transform="translate(-299.519 -100.369)" fill="#414242"/>
                </g>
              </g>
              <g id="Group_13324" data-name="Group 13324" transform="translate(43.994 24.925)">
                <g id="Group_13323" data-name="Group 13323">
                  <path id="Path_15041" data-name="Path 15041" d="M805.792,267.955,590.508,392.739,314.87,233.88,530.154,109.1Z" transform="translate(-311.73 -107.281)" fill="#f1f1f1"/>
                  <path id="Path_15042" data-name="Path 15042" d="M318.288,227.812,583.45,380.634,788.259,261.922,523.1,109.1Z" transform="translate(-304.673 -107.271)" fill="#fff"/>
                  <path id="Path_15043" data-name="Path 15043" d="M592.626,395.775l-.787-.45L313.845,235.106,532.266,108.5,811.047,269.172ZM320.127,235.1,592.62,392.147,804.768,269.181l-272.5-157.047Z" transform="translate(-313.845 -108.503)" fill="#414242"/>
                </g>
              </g>
              <g id="Group_13326" data-name="Group 13326" transform="translate(0 151.994)">
                <g id="Group_13325" data-name="Group 13325">
                  <path id="Path_15044" data-name="Path 15044" d="M300,150.655V352.468a.088.088,0,0,0,.049.08l319.7,184.794a.1.1,0,0,0,.144-.083V335.446a.1.1,0,0,0-.049-.083l-319.7-184.791A.1.1,0,0,0,300,150.655Z" transform="translate(-298.429 -148.756)" fill="#dfdfdf"/>
                  <path id="Path_15045" data-name="Path 15045" d="M620.908,540.371l-.883-.451L299.537,354.67l-.049-.99V150.961l1.63-.99.88.46L622.474,335.675l.049.987V539.378ZM302.632,352.832,619.379,535.916v-198.4L302.632,154.43Z" transform="translate(-299.488 -149.971)" fill="#414242"/>
                </g>
              </g>
              <g id="Group_13328" data-name="Group 13328" transform="translate(319.891 184.95)">
                <g id="Group_13327" data-name="Group 13327">
                  <path id="Path_15046" data-name="Path 15046" d="M666.549,161.408v201.81a.093.093,0,0,1-.049.083L404.536,515.142a.092.092,0,0,1-.141-.08V313.249a.093.093,0,0,1,.046-.083L666.405,161.326A.1.1,0,0,1,666.549,161.408Z" transform="translate(-402.823 -159.515)" fill="#a4a4a4"/>
                  <path id="Path_15047" data-name="Path 15047" d="M405.6,518.167l-1.673-.895-.049-1V313.535l.852-.53L667.455,160.726l1.673.895.049,1V365.272l-.745.549Zm1.422-202.855v198.4l259.01-150.128v-198.4Z" transform="translate(-403.882 -160.726)" fill="#414242"/>
                </g>
              </g>
              <g id="Group_13330" data-name="Group 13330" transform="translate(43.991 24.012)">
                <g id="Group_13329" data-name="Group 13329">
                  <path id="Path_15048" data-name="Path 15048" d="M530.154,109.1v17.137L329.7,242.418,314.87,233.88Z" transform="translate(-311.727 -106.367)" fill="#a4a4a4"/>
                  <path id="Path_15049" data-name="Path 15049" d="M331.825,246.073l-17.981-10.351,220-127.516v20.77Zm-11.693-10.36,11.687,6.729L530.7,127.164v-13.5Z" transform="translate(-313.844 -108.205)" fill="#414242"/>
                </g>
              </g>
              <g id="Group_13332" data-name="Group 13332" transform="translate(260.846 24.021)">
                <g id="Group_13331" data-name="Group 13331">
                  <path id="Path_15050" data-name="Path 15050" d="M385.126,109.1v17.137l260.8,150.321,14.834-8.6Z" transform="translate(-383.554 -106.377)" fill="#dedede"/>
                  <path id="Path_15051" data-name="Path 15051" d="M646.994,280.2,384.613,128.971V108.208l280.35,161.576ZM387.754,127.154,646.988,276.571l11.7-6.778L387.754,113.647Z" transform="translate(-384.613 -108.208)" fill="#414242"/>
                </g>
              </g>
            </g>
          </g>
        </g>
        <path id="Path_15052" data-name="Path 15052" d="M487.97,164.611a6.452,6.452,0,0,1-5.85,0c-1.615-.932-1.615-2.445,0-3.377a6.453,6.453,0,0,1,5.85,0C489.589,162.166,489.589,163.679,487.97,164.611Z" transform="translate(75.015 23.826)" fill="#414242"/>
      </g>
      <g id="Group_13355" data-name="Group 13355" transform="translate(90.154 181.671)">
        <g id="Group_13345" data-name="Group 13345">
          <g id="Group_13338" data-name="Group 13338" transform="translate(1.526)">
            <g id="Group_13337" data-name="Group 13337">
              <path id="Path_15053" data-name="Path 15053" d="M304.3,158.257V328.7l105.5,61.095V219.351Z" transform="translate(-302.73 -155.531)" fill="#f1f1f1"/>
              <path id="Path_15054" data-name="Path 15054" d="M412.435,394.354,303.788,331.439V157.367l108.647,62.916ZM306.929,329.628,409.291,388.9V222.094L306.929,162.818Z" transform="translate(-303.788 -157.367)" fill="#414242"/>
            </g>
          </g>
          <g id="Group_13340" data-name="Group 13340" transform="translate(46.111 103.771)">
            <g id="Group_13339" data-name="Group 13339">
              <path id="Path_15055" data-name="Path 15055" d="M320.851,191.232v65.805l40.735,23.588V214.82Z" transform="translate(-313.15 -191.232)" fill="#198cbf"/>
              <path id="Path_15056" data-name="Path 15056" d="M362.218,287.185l-43.88-25.409V192.343l43.88,25.406Zm-40.736-27.22,37.592,21.769V219.56l-37.592-21.766Z" transform="translate(-318.338 -188.938)" fill="#414242"/>
            </g>
          </g>
          <g id="Group_13342" data-name="Group 13342" transform="translate(1.526)">
            <g id="Group_13341" data-name="Group 13341">
              <path id="Path_15057" data-name="Path 15057" d="M304.3,328.7l12.424-7.445V165.459l-12.424-7.2Z" transform="translate(-302.73 -155.531)" fill="#a3a3a3"/>
              <path id="Path_15058" data-name="Path 15058" d="M303.788,333.308V157.367l15.567,9.021V323.977Zm3.141-170.49v164.94l9.282-5.562v-154Z" transform="translate(-303.788 -157.367)" fill="#414242"/>
            </g>
          </g>
          <g id="Group_13344" data-name="Group 13344" transform="translate(0 163.899)">
            <g id="Group_13343" data-name="Group 13343">
              <path id="Path_15059" data-name="Path 15059" d="M409.805,279.989V265.342l-93.081-53.893L304.3,218.894Z" transform="translate(-301.204 -209.626)" fill="#fff"/>
              <path id="Path_15060" data-name="Path 15060" d="M413.463,283.943l-110.173-63.8,15.505-9.291,94.667,54.811ZM309.483,220.1l100.836,58.4V267.476l-91.5-52.978Z" transform="translate(-303.29 -210.854)" fill="#414242"/>
            </g>
          </g>
        </g>
        <g id="Group_13352" data-name="Group 13352" transform="translate(23.785 35.365)">
          <g id="Group_13347" data-name="Group 13347" transform="translate(0.276)">
            <g id="Group_13346" data-name="Group 13346">
              <path id="Path_15061" data-name="Path 15061" d="M383.959,205.778l-10.581,6.144a.274.274,0,0,1-.282,0l-61.3-35.763a.28.28,0,0,1,0-.484l10.581-6.144a.268.268,0,0,1,.279,0l61.3,35.763A.279.279,0,0,1,383.959,205.778Z" transform="translate(-310.083 -167.704)" fill="#e74442"/>
              <path id="Path_15062" data-name="Path 15062" d="M384.015,207.362l-10.581,6.147a.281.281,0,0,1-.282,0l-61.3-35.763a.281.281,0,0,1,0-.484l10.581-6.144a.274.274,0,0,1,.282,0l61.3,35.766A.279.279,0,0,1,384.015,207.362Z" transform="translate(-309.967 -164.434)" fill="#f8e7cc"/>
              <path id="Path_15063" data-name="Path 15063" d="M374.444,214.943l-1.066-.451-62.1-36.232-.135-1.146a1.852,1.852,0,0,1,.932-1.6l11.378-6.61,1.082.481L386.59,205.6l.141,1.146a1.854,1.854,0,0,1-.925,1.6Zm-58.883-37.819L374.3,211.391l8.01-4.652-58.739-34.268Z" transform="translate(-311.142 -168.908)" fill="#414242"/>
            </g>
          </g>
          <g id="Group_13349" data-name="Group 13349" transform="translate(0 6.643)">
            <g id="Group_13348" data-name="Group 13348">
              <path id="Path_15064" data-name="Path 15064" d="M311.565,171.937v29.923a.284.284,0,0,0,.138.242L373,237.864a.28.28,0,0,0,.42-.242V207.7a.275.275,0,0,0-.138-.239l-61.3-35.763A.278.278,0,0,0,311.565,171.937Z" transform="translate(-309.993 -169.88)" fill="#e74442"/>
              <path id="Path_15065" data-name="Path 15065" d="M313.845,173.379v30.572l3.042-.112V173.267Z" transform="translate(-305.286 -166.554)" fill="#404141"/>
              <path id="Path_15066" data-name="Path 15066" d="M320.851,177.289v30.572l3.042-.113V177.177Z" transform="translate(-290.824 -158.483)" fill="#404141"/>
              <path id="Path_15067" data-name="Path 15067" d="M374.2,240.669a1.841,1.841,0,0,1-.947-.263L311.19,204.2l-.138-1.143v-30.83l1.707-1.149,1.066.45,62.091,36.223.138,1.146v30.836l-.938.7A1.843,1.843,0,0,1,374.2,240.669ZM314.2,202.316l58.718,34.249V209.634L314.2,175.381Z" transform="translate(-311.052 -171.076)" fill="#414242"/>
            </g>
          </g>
          <g id="Group_13351" data-name="Group 13351" transform="translate(61.861 36.266)">
            <g id="Group_13350" data-name="Group 13350">
              <path id="Path_15068" data-name="Path 15068" d="M342.891,181.6v29.926a.287.287,0,0,1-.141.242l-10.578,6.141a.278.278,0,0,1-.42-.242V187.745a.273.273,0,0,1,.141-.242l10.578-6.144A.28.28,0,0,1,342.891,181.6Z" transform="translate(-330.183 -179.548)" fill="#cf3937"/>
              <path id="Path_15069" data-name="Path 15069" d="M333.232,220.922l-1.07-.457a1.86,1.86,0,0,1-.922-1.6V188.027l.928-.7,11.353-6.588,1.063.447a1.843,1.843,0,0,1,.935,1.606V213.6l-.9.7Zm1.149-31.24v26.938l7.995-4.639V185.042Z" transform="translate(-331.24 -180.743)" fill="#414242"/>
            </g>
          </g>
        </g>
        <g id="Group_13354" data-name="Group 13354" transform="translate(76.567 148.695)">
          <g id="Group_13353" data-name="Group 13353">
            <path id="Path_15070" data-name="Path 15070" d="M346.948,245.384,328.789,234.9V207.687l18.158,10.484Z" transform="translate(-327.219 -202.188)" fill="#dedede"/>
            <path id="Path_15071" data-name="Path 15071" d="M348.765,243.59l-18.159-10.484V205.892l18.159,10.484Z" transform="translate(-323.468 -205.892)" fill="#fff"/>
            <path id="Path_15072" data-name="Path 15072" d="M349.577,249.94l-21.3-12.3V206.8l21.3,12.3Zm-18.159-14.114,15.015,8.672V220.915l-15.015-8.672Z" transform="translate(-328.277 -204.023)" fill="#414242"/>
          </g>
        </g>
      </g>
      <g id="Group_13369" data-name="Group 13369" transform="translate(278.03 290.021)">
        <g id="Group_13364" data-name="Group 13364">
          <g id="Group_13357" data-name="Group 13357" transform="translate(0 0.003)">
            <g id="Group_13356" data-name="Group 13356">
              <path id="Path_15073" data-name="Path 15073" d="M365.115,193.617V364.058L470.62,425.153V254.712Z" transform="translate(-363.543 -190.89)" fill="#f1f1f1"/>
              <path id="Path_15074" data-name="Path 15074" d="M473.249,429.715,364.6,366.8V192.727l108.647,62.916ZM367.743,364.991,470.1,424.263V257.454L367.743,198.178Z" transform="translate(-364.602 -192.727)" fill="#414242"/>
            </g>
          </g>
          <g id="Group_13359" data-name="Group 13359" transform="translate(34.985 31.843)">
            <g id="Group_13358" data-name="Group 13358">
              <path id="Path_15075" data-name="Path 15075" d="M378.363,203.118v96.361l59.649,34.541V237.659Z" transform="translate(-371.18 -203.118)" fill="#198cbf"/>
              <path id="Path_15076" data-name="Path 15076" d="M438.812,340.277l-62.793-36.358V203.926l62.793,36.361Zm-59.649-38.169,56.508,32.72V242.1l-56.508-32.72Z" transform="translate(-376.019 -201.449)" fill="#414242"/>
            </g>
          </g>
          <g id="Group_13361" data-name="Group 13361">
            <g id="Group_13360" data-name="Group 13360">
              <path id="Path_15077" data-name="Path 15077" d="M365.115,364.058l12.424-7.446V200.819l-12.424-7.2Z" transform="translate(-363.543 -190.887)" fill="#a3a3a3"/>
              <path id="Path_15078" data-name="Path 15078" d="M364.6,365.866V192.726l15.57,9.027V359.339L367,367.23A1.587,1.587,0,0,1,364.6,365.866Zm3.141-167.683V363.121l9.285-5.562V203.564Z" transform="translate(-364.602 -192.726)" fill="#414242"/>
            </g>
          </g>
          <g id="Group_13363" data-name="Group 13363" transform="translate(0.015 163.902)">
            <g id="Group_13362" data-name="Group 13362">
              <path id="Path_15079" data-name="Path 15079" d="M470.62,315.35V300.7l-93.081-53.893-12.424,7.446Z" transform="translate(-363.559 -244.985)" fill="#fff"/>
              <path id="Path_15080" data-name="Path 15080" d="M473.239,319.3,365.4,256.859a1.591,1.591,0,0,1-.018-2.739l13.2-7.906,94.661,54.814Zm-103.98-63.844,100.836,58.393V302.839L378.6,249.86Z" transform="translate(-364.607 -246.214)" fill="#414242"/>
            </g>
          </g>
        </g>
        <g id="Group_13366" data-name="Group 13366" transform="translate(30.67 53.809)">
          <g id="Group_13365" data-name="Group 13365">
            <path id="Path_15081" data-name="Path 15081" d="M375.124,243.734l20.184,11.653V224.254L375.124,212.6Z" transform="translate(-373.552 -205.513)" fill="#dedede"/>
            <path id="Path_15082" data-name="Path 15082" d="M377.046,241.419l20.187,11.656V221.939l-20.187-11.653Z" transform="translate(-369.584 -210.286)" fill="#fff"/>
            <path id="Path_15083" data-name="Path 15083" d="M397.939,259.945l-23.328-13.467V211.71l23.328,13.467ZM377.755,244.66,394.8,254.5v-27.5l-17.044-9.839Z" transform="translate(-374.611 -207.346)" fill="#414242"/>
          </g>
        </g>
        <g id="Group_13368" data-name="Group 13368" transform="translate(43.222 78.124)">
          <g id="Group_13367" data-name="Group 13367">
            <path id="Path_15084" data-name="Path 15084" d="M379.22,260.308l25.63,14.8v-39.29l-25.63-14.8Z" transform="translate(-377.648 -212.447)" fill="#dedede"/>
            <path id="Path_15085" data-name="Path 15085" d="M380.968,257.514l25.63,14.8V233.018l-25.63-14.8Z" transform="translate(-374.04 -218.221)" fill="#fff"/>
            <path id="Path_15086" data-name="Path 15086" d="M407.477,279.665l-28.771-16.611V220.129l28.771,16.614Zm-25.63-18.429,22.489,12.983V238.561l-22.489-12.986Z" transform="translate(-378.707 -214.282)" fill="#414242"/>
          </g>
        </g>
      </g>
      <g id="Group_13377" data-name="Group 13377" transform="translate(207.779 250.237)">
        <g id="Group_13376" data-name="Group 13376">
          <g id="Group_13371" data-name="Group 13371" transform="translate(1.505)">
            <g id="Group_13370" data-name="Group 13370">
              <path id="Path_15087" data-name="Path 15087" d="M342.679,180.634V366.1l55.161,31.911V212.675Z" transform="translate(-341.11 -177.904)" fill="#f1f1f1"/>
              <path id="Path_15088" data-name="Path 15088" d="M400.468,402.577l-58.3-33.735v-189.1l58.3,33.866Zm-55.16-35.546,52.019,30.094V215.42l-52.019-30.214Z" transform="translate(-342.167 -179.743)" fill="#414242"/>
            </g>
          </g>
          <g id="Group_13373" data-name="Group 13373" transform="translate(1.505 0.003)">
            <g id="Group_13372" data-name="Group 13372">
              <path id="Path_15089" data-name="Path 15089" d="M342.881,365.976l12.223-7.452V187.838l-12.426-7.2V365.863A.132.132,0,0,0,342.881,365.976Z" transform="translate(-341.11 -177.907)" fill="#a3a3a3"/>
              <path id="Path_15090" data-name="Path 15090" d="M343.984,369.637l-1.75-.9-.067-1.039V179.744l15.567,9.024V361.244ZM345.308,185.2v179.94l9.282-5.657v-168.9Z" transform="translate(-342.167 -179.744)" fill="#414242"/>
            </g>
          </g>
          <g id="Group_13375" data-name="Group 13375" transform="translate(0 178.791)">
            <g id="Group_13374" data-name="Group 13374">
              <path id="Path_15091" data-name="Path 15091" d="M397.84,278.173V263.526L355.1,238.687l-12.424,7.575Z" transform="translate(-339.605 -236.857)" fill="#dfdfdf"/>
              <path id="Path_15092" data-name="Path 15092" d="M401.481,282.133l-59.805-34.6,15.481-9.441,44.325,25.761Zm-53.655-34.675,50.514,29.224V265.662l-41.147-23.914Z" transform="translate(-341.676 -238.09)" fill="#414242"/>
            </g>
          </g>
        </g>
      </g>
      <g id="Group_13405" data-name="Group 13405" transform="translate(463.505 239.049)">
        <g id="Group_13404" data-name="Group 13404">
          <g id="Group_13386" data-name="Group 13386">
            <g id="Group_13379" data-name="Group 13379" transform="translate(0 98.102)">
              <g id="Group_13378" data-name="Group 13378">
                <path id="Path_15093" data-name="Path 15093" d="M426.587,208.7l21.232,12.269a.646.646,0,0,1,.233.239l41.91,74.823a.646.646,0,0,1,.08.31V416.482a.632.632,0,0,1-.947.545l-63.136-36.581a.622.622,0,0,1-.316-.542V209.249A.629.629,0,0,1,426.587,208.7Z" transform="translate(-424.071 -207.05)" fill="#178dc0"/>
                <path id="Path_15094" data-name="Path 15094" d="M490.469,419.739a2.191,2.191,0,0,1-1.106-.3L426.23,382.867a2.212,2.212,0,0,1-1.1-1.909V210.308a2.2,2.2,0,0,1,3.3-1.909h0l21.232,12.272a2.13,2.13,0,0,1,.815.824l41.91,74.829a2.174,2.174,0,0,1,.282,1.076V417.539a2.2,2.2,0,0,1-2.2,2.2Zm-62.2-39.324L489.529,415.9V297.646L447.87,223.261l-19.6-11.326Z" transform="translate(-425.13 -208.106)" fill="#414242"/>
              </g>
            </g>
            <g id="Group_13381" data-name="Group 13381" transform="translate(0.628)">
              <g id="Group_13380" data-name="Group 13380">
                <path id="Path_15095" data-name="Path 15095" d="M426.163,273.7,593.7,176.689a.628.628,0,0,1,.631,0L615.4,188.864a.63.63,0,0,1,0,1.091L447.861,286.963a.629.629,0,0,1-.631,0l-21.067-12.174A.63.63,0,0,1,426.163,273.7Z" transform="translate(-424.275 -175.033)" fill="#219dc8"/>
                <path id="Path_15096" data-name="Path 15096" d="M426.469,276.706l167.539-97.012a.643.643,0,0,1,.631,0l21.067,12.177a.627.627,0,0,1,0,1.088L448.167,289.972a.622.622,0,0,1-.628,0L426.469,277.8A.632.632,0,0,1,426.469,276.706Z" transform="translate(-423.64 -168.825)" fill="#82d0f2"/>
                <path id="Path_15097" data-name="Path 15097" d="M448.6,289.676a2.226,2.226,0,0,1-1.091-.288l-21.076-12.18a2.2,2.2,0,0,1,0-3.809l167.539-97.012a2.226,2.226,0,0,1,2.2-.009l21.07,12.184a2.2,2.2,0,0,1,.015,3.806L449.708,289.382A2.224,2.224,0,0,1,448.6,289.676ZM429.42,275.3l19.182,11.09L614.266,190.47l-19.188-11.093Z" transform="translate(-425.335 -176.092)" fill="#414242"/>
              </g>
            </g>
            <g id="Group_13383" data-name="Group 13383" transform="translate(22.553 13.036)">
              <g id="Group_13382" data-name="Group 13382">
                <path id="Path_15098" data-name="Path 15098" d="M433.082,278.9l41.457,74.021a.631.631,0,0,0,.864.239L643.11,256.056a.633.633,0,0,0,.233-.855l-41.456-74.02a.63.63,0,0,0-.867-.236l-167.7,97.107A.628.628,0,0,0,433.082,278.9Z" transform="translate(-431.434 -179.286)" fill="#209ec9"/>
                <path id="Path_15099" data-name="Path 15099" d="M476.147,355.88a2.265,2.265,0,0,1-.588-.08,2.214,2.214,0,0,1-1.336-1.048l-41.46-74.03a2.209,2.209,0,0,1,.824-2.969l167.7-97.11a2.2,2.2,0,0,1,3.021.824l41.46,74.027a2.2,2.2,0,0,1-.818,2.978l-167.7,97.107A2.217,2.217,0,0,1,476.147,355.88Zm-40.185-75.871L476.5,352.384l166.074-96.163-40.537-72.378Z" transform="translate(-432.49 -180.346)" fill="#414242"/>
              </g>
            </g>
            <g id="Group_13385" data-name="Group 13385" transform="translate(64.399 88.385)">
              <g id="Group_13384" data-name="Group 13384">
                <path id="Path_15100" data-name="Path 15100" d="M446.971,302.543l167.536-97.009a.63.63,0,0,1,.947.545V326.545a.623.623,0,0,1-.316.545L447.6,423.576a.629.629,0,0,1-.944-.545V303.089A.63.63,0,0,1,446.971,302.543Z" transform="translate(-445.087 -203.877)" fill="#075a88"/>
                <path id="Path_15101" data-name="Path 15101" d="M448.346,426.288a2.2,2.2,0,0,1-2.2-2.2V304.146a2.205,2.205,0,0,1,1.091-1.9l.006-.006,167.536-97.009a2.2,2.2,0,0,1,3.306,1.906V327.6a2.21,2.21,0,0,1-1.1,1.906L449.449,426A2.258,2.258,0,0,1,448.346,426.288Zm.944-121.6V422.461l165.651-95.4V208.768Z" transform="translate(-446.146 -204.935)" fill="#414242"/>
              </g>
            </g>
          </g>
          <g id="Group_13394" data-name="Group 13394" transform="translate(9.701 175.13)">
            <g id="Group_13393" data-name="Group 13393">
              <g id="Group_13388" data-name="Group 13388" transform="translate(0.199)">
                <g id="Group_13387" data-name="Group 13387">
                  <path id="Path_15102" data-name="Path 15102" d="M468.7,250.4l-11.148,6.475a.194.194,0,0,1-.2,0l-28.378-16.2a.2.2,0,0,1,0-.346l11.148-6.475a.208.208,0,0,1,.2,0l28.378,16.2A.2.2,0,0,1,468.7,250.4Z" transform="translate(-427.302 -232.041)" fill="#f1f1f1"/>
                  <path id="Path_15103" data-name="Path 15103" d="M468.674,252.367l-11.151,6.475a.2.2,0,0,1-.2,0l-28.378-16.2a.2.2,0,0,1,0-.346L440.1,235.82a.2.2,0,0,1,.2,0l28.375,16.2A.2.2,0,0,1,468.674,252.367Z" transform="translate(-427.361 -227.984)" fill="#fff"/>
                  <path id="Path_15104" data-name="Path 15104" d="M458.633,259.885l-.98-.426L428.471,242.8l-.11-1.076a1.778,1.778,0,0,1,.876-1.544l11.941-6.931.984.447,29.169,16.654.1,1.088a1.783,1.783,0,0,1-.879,1.532Zm-25.752-18.193,25.626,14.632,8.405-4.881-25.623-14.632Z" transform="translate(-428.361 -233.244)" fill="#414242"/>
                </g>
              </g>
              <g id="Group_13390" data-name="Group 13390" transform="translate(0 6.815)">
                <g id="Group_13389" data-name="Group 13389">
                  <path id="Path_15105" data-name="Path 15105" d="M428.809,236.251v49.083a.192.192,0,0,0,.1.172l28.378,16.207a.2.2,0,0,0,.3-.175v-49.08a.2.2,0,0,0-.1-.175l-28.378-16.2A.2.2,0,0,0,428.809,236.251Z" transform="translate(-427.237 -234.262)" fill="#dfdfdf"/>
                  <path id="Path_15106" data-name="Path 15106" d="M458.445,304.512a1.774,1.774,0,0,1-.876-.23L428.4,287.625l-.1-1.085V236.55l1.676-1.082.981.457,29.163,16.654.1,1.082v49.987l-.88.625A1.76,1.76,0,0,1,458.445,304.512ZM431.44,285.743l25.636,14.638V254.46L431.44,239.822Z" transform="translate(-428.296 -235.468)" fill="#414242"/>
                </g>
              </g>
              <g id="Group_13392" data-name="Group 13392" transform="translate(28.78 16.547)">
                <g id="Group_13391" data-name="Group 13391">
                  <path id="Path_15107" data-name="Path 15107" d="M449.749,239.426v49.08a.2.2,0,0,1-.1.172L438.5,295.153a.2.2,0,0,1-.3-.172V245.9a.2.2,0,0,1,.1-.172l11.148-6.475A.2.2,0,0,1,449.749,239.426Z" transform="translate(-436.631 -237.44)" fill="#a2a2a2"/>
                  <path id="Path_15108" data-name="Path 15108" d="M439.56,298.171l-.987-.451a1.776,1.776,0,0,1-.886-1.535V246.176l.91-.619,11.9-6.913.99.45a1.784,1.784,0,0,1,.886,1.535v50.012l-.913.619Zm1.269-50.276V293.8l8.408-4.881V243.014Z" transform="translate(-437.688 -238.644)" fill="#414242"/>
                </g>
              </g>
            </g>
          </g>
          <g id="Group_13403" data-name="Group 13403" transform="translate(79.368 181.81)">
            <g id="Group_13402" data-name="Group 13402">
              <g id="Group_13401" data-name="Group 13401">
                <g id="Group_13396" data-name="Group 13396" transform="translate(0.141)">
                  <g id="Group_13395" data-name="Group 13395">
                    <path id="Path_15109" data-name="Path 15109" d="M495.426,240,457.91,261.63a.141.141,0,0,1-.147,0l-6.1-3.717a.146.146,0,0,1,0-.251l37.516-21.631a.154.154,0,0,1,.15,0l6.1,3.717A.146.146,0,0,1,495.426,240Z" transform="translate(-450.02 -234.208)" fill="#fff"/>
                    <path id="Path_15110" data-name="Path 15110" d="M458.955,264.669l-.944-.475L451.132,260l-.055-1.03.015-.9.858-.567,38.3-22.084.941.478,6.882,4.192.055,1.03-.015.9-.846.561Zm-3.368-5.632,3.328,2.025,34.7-20-3.328-2.029Z" transform="translate(-451.077 -235.424)" fill="#414242"/>
                  </g>
                </g>
                <g id="Group_13398" data-name="Group 13398" transform="translate(6.386 3.981)">
                  <g id="Group_13397" data-name="Group 13397">
                    <path id="Path_15111" data-name="Path 15111" d="M453.628,259.082v64.034a.148.148,0,0,0,.221.129l37.51-21.628a.147.147,0,0,0,.074-.129V237.458a.148.148,0,0,0-.221-.129L453.7,258.956A.142.142,0,0,0,453.628,259.082Z" transform="translate(-452.056 -235.512)" fill="#a2a2a2"/>
                    <path id="Path_15112" data-name="Path 15112" d="M454.9,326.273l-1.713-.919-.074-1.027V259.353l.9-.573,38.257-22.057,1.713.919.073,1.023v64.978l-.907.57Zm1.354-65.156v60.743l34.663-19.985V241.132Z" transform="translate(-453.115 -236.723)" fill="#414242"/>
                  </g>
                </g>
                <g id="Group_13400" data-name="Group 13400" transform="translate(0 21.891)">
                  <g id="Group_13399" data-name="Group 13399">
                    <path id="Path_15113" data-name="Path 15113" d="M457.708,311.169l-6.095-3.711a.153.153,0,0,1-.071-.126V243.3a.148.148,0,0,1,.224-.126l6.095,3.711a.155.155,0,0,1,.07.129v64.028A.148.148,0,0,1,457.708,311.169Z" transform="translate(-449.974 -241.356)" fill="#dfdfdf"/>
                    <path id="Path_15114" data-name="Path 15114" d="M458.9,314.2l-.95-.478-6.846-4.17-.07-1.008V243.6l1.661-1.033.935.469,6.861,4.183.071,1.005v64.944Zm-4.725-6.456,3.245,1.973V249.024l-3.245-1.973Z" transform="translate(-451.031 -242.568)" fill="#414242"/>
                  </g>
                </g>
              </g>
            </g>
          </g>
        </g>
      </g>
      <g id="Group_13416" data-name="Group 13416" transform="translate(604.014 402.256)">
        <g id="Group_13415" data-name="Group 13415">
          <g id="Group_13414" data-name="Group 13414">
            <g id="Group_13413" data-name="Group 13413">
              <g id="Group_13407" data-name="Group 13407" transform="translate(0.244)">
                <g id="Group_13406" data-name="Group 13406">
                  <path id="Path_15115" data-name="Path 15115" d="M502.348,235.849l-10.274-5.929a.406.406,0,0,0-.4,0l-19.887,11.4a.405.405,0,0,0-.1.631l5.562,5.917.015.018L493.6,267.23a.4.4,0,0,1,.092.215l7.385,61.892,3.561,32.022a.405.405,0,0,0,.607.306l19.792-11.341a.4.4,0,0,0,.205-.352l.15-74.2C525.394,261.1,515.055,243.188,502.348,235.849Z" transform="translate(-470.006 -228.298)" fill="#a2a2a2"/>
                  <path id="Path_15116" data-name="Path 15116" d="M506.1,364.343a1.979,1.979,0,0,1-1.967-1.75l-3.561-32.028-7.342-61.534-16.109-19.087-5.525-5.871a1.978,1.978,0,0,1,.463-3.07l19.884-11.393a2.016,2.016,0,0,1,1.955-.009l10.29,5.945c13.14,7.587,23.834,26.1,23.834,41.279l-.15,74.207a1.967,1.967,0,0,1-1.008,1.716l-19.78,11.335A2,2,0,0,1,506.1,364.343ZM474.9,243l4.55,4.842,16.716,19.8.147.683L503.7,330.2l3.365,30.269,17.669-10.124.15-73.527c0-14.169-9.986-31.467-22.262-38.558l-9.692-5.6Z" transform="translate(-471.063 -229.353)" fill="#414242"/>
                </g>
              </g>
              <g id="Group_13409" data-name="Group 13409" transform="translate(0.244)">
                <g id="Group_13408" data-name="Group 13408">
                  <path id="Path_15117" data-name="Path 15117" d="M524.319,268.587a.411.411,0,0,0,.205-.447c-2.706-12.784-11.61-26.19-22.176-32.291l-10.274-5.929a.406.406,0,0,0-.4,0l-19.887,11.4a.405.405,0,0,0-.1.631l5.562,5.917.015.018,16.345,19.357a.406.406,0,0,1,.089.2l1.976,12.677a.408.408,0,0,0,.322.334l5.084,1.054a.392.392,0,0,0,.282-.043Z" transform="translate(-470.006 -228.298)" fill="#f2f2f2"/>
                  <path id="Path_15118" data-name="Path 15118" d="M519.752,273.182a7.349,7.349,0,0,0,3.285-8.877c-3.8-10.866-11.574-21.318-20.549-26.5l-10.274-5.932a.413.413,0,0,0-.4,0l-19.887,11.4a.4.4,0,0,0-.095.628l5.565,5.92.012.015,16.345,19.36a.394.394,0,0,1,.089.2l1.979,12.674a.4.4,0,0,0,.319.334l5.087,1.057a.42.42,0,0,0,.279-.043Z" transform="translate(-469.717 -224.261)" fill="#fff"/>
                  <path id="Path_15119" data-name="Path 15119" d="M502.685,284.164l-.843-.061-5.111-1.063a1.973,1.973,0,0,1-1.551-1.642l-1.931-12.343-16.127-19.109-5.525-5.871a1.978,1.978,0,0,1,.463-3.07l19.884-11.393a2.016,2.016,0,0,1,1.955-.009l10.29,5.945c10.645,6.144,20.074,19.847,22.93,33.324a1.986,1.986,0,0,1-.965,2.139l-.009.006Zm-4.523-4.039,3.87.806,21.83-12.239c-2.883-12.395-11.528-24.818-21.245-30.428l-9.692-5.6L474.9,243l4.55,4.842,16.716,19.8.147.659Z" transform="translate(-471.063 -229.353)" fill="#414242"/>
                </g>
              </g>
              <g id="Group_13412" data-name="Group 13412" transform="translate(0 11.997)">
                <g id="Group_13411" data-name="Group 13411">
                  <g id="Group_13410" data-name="Group 13410">
                    <path id="Path_15120" data-name="Path 15120" d="M504.263,353.538,491.041,345.9a.406.406,0,0,1-.2-.352l.147-74.2c0-5.739-4.042-12.744-9.012-15.616L471.7,249.806a.409.409,0,0,1-.2-.352V234.187a.406.406,0,0,1,.61-.352l9.867,5.7c12.708,7.339,23.046,25.247,23.046,39.921l-.147,73.735A.406.406,0,0,1,504.263,353.538Z" transform="translate(-469.925 -232.212)" fill="#dfdfdf"/>
                    <path id="Path_15121" data-name="Path 15121" d="M505.521,356.218a1.978,1.978,0,0,1-.984-.26l0,0-13.219-7.633a1.989,1.989,0,0,1-.99-1.713l.15-74.2c0-5.148-3.769-11.675-8.231-14.255l-10.271-5.932a1.988,1.988,0,0,1-.99-1.71V235.247a1.977,1.977,0,0,1,2.969-1.713l9.864,5.7c13.143,7.587,23.831,26.1,23.831,41.279l-.147,73.735a1.967,1.967,0,0,1-1.98,1.973Zm-12.055-10.281,10.9,6.291.144-71.722c0-14.172-9.986-31.467-22.262-38.558l-8.12-4.685v12.573l9.692,5.6c5.494,3.175,9.8,10.627,9.8,16.976Z" transform="translate(-470.984 -233.268)" fill="#414242"/>
                  </g>
                </g>
              </g>
            </g>
          </g>
        </g>
      </g>
      <g id="Group_13427" data-name="Group 13427" transform="translate(653.921 372.857)">
        <g id="Group_13426" data-name="Group 13426">
          <g id="Group_13425" data-name="Group 13425">
            <g id="Group_13424" data-name="Group 13424">
              <g id="Group_13418" data-name="Group 13418">
                <g id="Group_13417" data-name="Group 13417">
                  <path id="Path_15122" data-name="Path 15122" d="M518.811,226.4l-10.458-6.037h-.037L487.838,232.1a.038.038,0,0,0-.009.058l5.893,6.266h0l16.415,19.446.009.018,7.4,62,3.622,32.582a.039.039,0,0,0,.055.028l20.469-11.73a.034.034,0,0,0,.018-.031l.15-74.416C541.858,251.645,531.519,233.738,518.811,226.4Z" transform="translate(-486.14 -218.514)" fill="#a2a2a2"/>
                  <path id="Path_15123" data-name="Path 15123" d="M522.4,355.524l-1.538-.757-.126-.858-3.625-32.6-7.339-61.534-16.121-19.094-6.38-6.781.264-1.535.656-.389,21.318-12.214.846.539,10.373,5.988c13.143,7.584,23.831,26.1,23.831,41.279l-.15,75.255-.714.5ZM491.432,233.738,496,238.586l16.838,20.356,7.4,62,3.368,30.272,17.672-10.127.144-73.527c0-14.172-9.986-31.47-22.262-38.558l-9.7-5.6Z" transform="translate(-487.271 -219.759)" fill="#414242"/>
                </g>
              </g>
              <g id="Group_13420" data-name="Group 13420">
                <g id="Group_13419" data-name="Group 13419">
                  <path id="Path_15124" data-name="Path 15124" d="M541.027,259a.035.035,0,0,0,.018-.04c-2.638-12.864-11.6-26.417-22.234-32.561l-10.458-6.037h-.037L487.838,232.1a.038.038,0,0,0-.009.058l5.893,6.266h0l16.415,19.446.009.018,2.031,13.029a.04.04,0,0,0,.031.031l5.473,1.137.025-.006Z" transform="translate(-486.14 -218.514)" fill="#f2f2f2"/>
                  <path id="Path_15125" data-name="Path 15125" d="M536.154,263.828a7.274,7.274,0,0,0,3.248-8.776c-3.791-10.887-11.58-21.373-20.573-26.567l-10.458-6.04h-.037l-20.479,11.733a.038.038,0,0,0-.009.058l5.893,6.266v0l16.415,19.443.009.018L512.194,273a.039.039,0,0,0,.031.031l5.473,1.137.025,0Z" transform="translate(-486.105 -214.214)" fill="#fff"/>
                  <path id="Path_15126" data-name="Path 15126" d="M518.808,274.9l-.319-.034L512,273.518l-.23-1.054L509.793,259.8l-16.143-19.118-6.38-6.781.264-1.535.656-.389,21.318-12.214.846.539,10.373,5.988c10.75,6.205,20.206,20.025,22.991,33.6l.242,1.183-1.036.545-23.678,13.274Zm-4.109-4.03,3.873.8L540.4,259.429c-2.88-12.4-11.5-24.8-21.245-30.425l-9.7-5.6-18.024,10.333L496,238.586l16.832,20.3Z" transform="translate(-487.271 -219.759)" fill="#414242"/>
                </g>
              </g>
              <g id="Group_13423" data-name="Group 13423" transform="translate(0.086 11.84)">
                <g id="Group_13422" data-name="Group 13422">
                  <g id="Group_13421" data-name="Group 13421">
                    <path id="Path_15127" data-name="Path 15127" d="M521.13,344.553l-13.958-8.059a.034.034,0,0,1-.018-.031l.147-74.416c0-5.739-4.042-12.744-9.012-15.615L487.83,240.4a.034.034,0,0,1-.018-.031V224.243a.036.036,0,0,1,.055-.031l10.422,6.015c12.708,7.339,23.047,25.247,23.047,39.921l-.15,74.373A.036.036,0,0,1,521.13,344.553Z" transform="translate(-486.24 -222.417)" fill="#dfdfdf"/>
                    <path id="Path_15128" data-name="Path 15128" d="M522.305,347.557l-.9-.435-14.745-8.512-.018-.941.147-74.419c0-5.151-3.769-11.678-8.228-14.246l-11.243-6.5-.018-.938V224.576l1.511-.953.818.389,10.5,6.064c13.14,7.584,23.834,26.1,23.834,41.279l-.153,75.249ZM509.788,336.8l10.89,6.279.144-71.722c0-14.172-9.986-31.47-22.262-38.558l-8.117-4.685v12.576l9.689,5.6c5.494,3.168,9.8,10.624,9.8,16.973Z" transform="translate(-487.299 -223.623)" fill="#414242"/>
                  </g>
                </g>
              </g>
            </g>
          </g>
        </g>
      </g>
      <g id="Group_13436" data-name="Group 13436" transform="translate(0 285.832)">
        <g id="Group_13435" data-name="Group 13435">
          <g id="Group_13434" data-name="Group 13434">
            <g id="Group_13429" data-name="Group 13429" transform="translate(0.071)">
              <g id="Group_13428" data-name="Group 13428">
                <path id="Path_15129" data-name="Path 15129" d="M305.263,203.8l-10.523,6.11a.092.092,0,0,1-.089,0l-20.2-11.687a.086.086,0,0,1,0-.15l10.523-6.11a.078.078,0,0,1,.089,0l20.2,11.684A.089.089,0,0,1,305.263,203.8Z" transform="translate(-272.821 -190.15)" fill="#f2f2f2"/>
                <path id="Path_15130" data-name="Path 15130" d="M305.234,205.28l-10.523,6.11a.092.092,0,0,1-.089,0l-20.2-11.687a.086.086,0,0,1,0-.15l10.523-6.11a.079.079,0,0,1,.089,0l20.2,11.684A.089.089,0,0,1,305.234,205.28Z" transform="translate(-272.881 -187.087)" fill="#fff"/>
                <path id="Path_15131" data-name="Path 15131" d="M295.8,212.934l-.879-.466-20.957-12.122-.077-1.848.794-.552,11.344-6.588.87.429,21,12.159.043,1.888-.824.53Zm-17.279-13.587,17.24,9.977,7.566-4.394-17.237-9.977Z" transform="translate(-273.892 -191.359)" fill="#414242"/>
              </g>
            </g>
            <g id="Group_13431" data-name="Group 13431" transform="translate(0 6.254)">
              <g id="Group_13430" data-name="Group 13430">
                <path id="Path_15132" data-name="Path 15132" d="M274.382,194.076v55.972a.083.083,0,0,0,.043.074l20.2,11.687a.088.088,0,0,0,.132-.077V205.763a.087.087,0,0,0-.043-.077L274.514,194A.086.086,0,0,0,274.382,194.076Z" transform="translate(-272.81 -192.185)" fill="#dfdfdf"/>
                <path id="Path_15133" data-name="Path 15133" d="M295.782,264.834l-.873-.441-21-12.153-.043-.977V194.384l1.618-.984.873.457L297.341,206l.043.981v56.87ZM277.013,250.4l17.227,9.971V207.833l-17.227-9.968Z" transform="translate(-273.869 -193.4)" fill="#414242"/>
              </g>
            </g>
            <g id="Group_13433" data-name="Group 13433" transform="translate(20.371 11.828)">
              <g id="Group_13432" data-name="Group 13432">
                <path id="Path_15134" data-name="Path 15134" d="M291.73,195.9v55.969a.09.09,0,0,1-.046.077l-10.523,6.11a.088.088,0,0,1-.132-.077V202.007a.09.09,0,0,1,.046-.077l10.52-6.11A.09.09,0,0,1,291.73,195.9Z" transform="translate(-279.458 -194.003)" fill="#a4a4a4"/>
                <path id="Path_15135" data-name="Path 15135" d="M282.221,261.089l-1.658-.919-.046-.977V202.3l.855-.527,11.28-6.555,1.664.91.043.984V254l-.852.53Zm1.44-57.011v52.54l7.557-4.391v-52.54Z" transform="translate(-280.517 -195.219)" fill="#414242"/>
              </g>
            </g>
          </g>
        </g>
      </g>
      <g id="Group_13445" data-name="Group 13445" transform="translate(723.842 327.261)">
        <g id="Group_13444" data-name="Group 13444">
          <g id="Group_13443" data-name="Group 13443">
            <g id="Group_13438" data-name="Group 13438" transform="translate(0.074)">
              <g id="Group_13437" data-name="Group 13437">
                <path id="Path_15136" data-name="Path 15136" d="M541.483,217.314l-10.523,6.11a.092.092,0,0,1-.089,0l-20.2-11.684a.089.089,0,0,1,0-.153l10.523-6.11a.092.092,0,0,1,.089,0l20.2,11.684A.089.089,0,0,1,541.483,217.314Z" transform="translate(-509.044 -203.669)" fill="#f2f2f2"/>
                <path id="Path_15137" data-name="Path 15137" d="M541.453,218.8l-10.523,6.11a.086.086,0,0,1-.086,0l-20.2-11.687a.084.084,0,0,1,0-.15l10.523-6.11a.086.086,0,0,1,.086,0l20.2,11.684A.088.088,0,0,1,541.453,218.8Z" transform="translate(-509.104 -200.605)" fill="#fff"/>
                <path id="Path_15138" data-name="Path 15138" d="M532.022,226.454l-.879-.466L510.19,213.866l-.077-1.848.791-.552,11.344-6.588.87.432,21.006,12.156.043,1.888-.827.53Zm-17.276-13.587,17.236,9.98,7.569-4.4-17.24-9.977Z" transform="translate(-510.113 -204.879)" fill="#414242"/>
              </g>
            </g>
            <g id="Group_13440" data-name="Group 13440" transform="translate(0 6.257)">
              <g id="Group_13439" data-name="Group 13439">
                <path id="Path_15139" data-name="Path 15139" d="M510.6,207.6v55.969a.086.086,0,0,0,.046.074l20.2,11.687a.088.088,0,0,0,.132-.077V219.282a.09.09,0,0,0-.046-.077l-20.2-11.684A.087.087,0,0,0,510.6,207.6Z" transform="translate(-509.03 -205.707)" fill="#dfdfdf"/>
                <path id="Path_15140" data-name="Path 15140" d="M532,278.352l-.873-.441-20.993-12.153-.046-.977V207.9l1.618-.981.873.453,20.981,12.141.043.984v56.867Zm-18.769-14.43,17.23,9.971V221.351l-17.23-9.968Z" transform="translate(-510.089 -206.921)" fill="#414242"/>
              </g>
            </g>
            <g id="Group_13442" data-name="Group 13442" transform="translate(20.374 11.828)">
              <g id="Group_13441" data-name="Group 13441">
                <path id="Path_15141" data-name="Path 15141" d="M527.948,209.416v55.969a.094.094,0,0,1-.043.077l-10.523,6.11a.088.088,0,0,1-.132-.077V215.527a.087.087,0,0,1,.043-.077l10.523-6.11A.088.088,0,0,1,527.948,209.416Z" transform="translate(-515.679 -207.523)" fill="#a4a4a4"/>
                <path id="Path_15142" data-name="Path 15142" d="M518.439,274.609l-1.658-.919-.043-.978V215.821l.852-.527,11.283-6.555,1.661.91.046.984v56.891l-.855.53Zm1.44-57.011v52.54l7.557-4.391V213.21Z" transform="translate(-516.738 -208.739)" fill="#414242"/>
              </g>
            </g>
          </g>
        </g>
      </g>
      <g id="Group_13467" data-name="Group 13467" transform="translate(334.067 417.099)">
        <g id="Group_13466" data-name="Group 13466">
          <g id="Group_13465" data-name="Group 13465">
            <g id="Group_13464" data-name="Group 13464">
              <g id="Group_13452" data-name="Group 13452" transform="translate(20.644 131.037)">
                <g id="Group_13447" data-name="Group 13447">
                  <g id="Group_13446" data-name="Group 13446">
                    <path id="Path_15143" data-name="Path 15143" d="M417.372,286.978l-11.137,6.467-15.6-9.422,11.137-6.467Z" transform="translate(-387.549 -275.731)" fill="#dfdfdf"/>
                    <path id="Path_15144" data-name="Path 15144" d="M408.3,296.5l-18.671-11.276,14.237-8.264,18.671,11.277Zm-12.5-11.221,12.533,7.569,8.037-4.667-12.533-7.569Z" transform="translate(-389.626 -276.96)" fill="#414242"/>
                  </g>
                </g>
                <g id="Group_13449" data-name="Group 13449" transform="translate(1.511 6.545)">
                  <g id="Group_13448" data-name="Group 13448">
                    <path id="Path_15145" data-name="Path 15145" d="M390.632,279.77v26.472a.081.081,0,0,0,.04.07l15.438,9.321a.083.083,0,0,0,.125-.07V289.091a.085.085,0,0,0-.04-.07L390.758,279.7A.083.083,0,0,0,390.632,279.77Z" transform="translate(-389.06 -277.876)" fill="#219dc8"/>
                    <path id="Path_15146" data-name="Path 15146" d="M407.218,318.677l-.867-.481-16.192-9.778-.04-.956V280.07l1.649-.974.87.484,16.189,9.772.04.959v27.395Zm-13.955-12.052,12.459,7.523v-23l-12.459-7.523Z" transform="translate(-390.119 -279.096)" fill="#414242"/>
                  </g>
                </g>
                <g id="Group_13451" data-name="Group 13451" transform="translate(17.114 9.499)">
                  <g id="Group_13450" data-name="Group 13450">
                    <path id="Path_15147" data-name="Path 15147" d="M406.863,280.733v26.475a.083.083,0,0,1-.043.074l-10.97,6.371a.085.085,0,0,1-.126-.074V287.1a.081.081,0,0,1,.043-.07l10.97-6.371A.083.083,0,0,1,406.863,280.733Z" transform="translate(-394.152 -278.842)" fill="#0a5a87"/>
                    <path id="Path_15148" data-name="Path 15148" d="M396.912,316.684l-1.661-.907-.04-.978V287.448l.781-.53,11.81-6.858,1.649.922.043.971v27.5l-.978.484Zm1.443-27.508V312.21l7.995-4.642V284.534Z" transform="translate(-395.211 -280.06)" fill="#414242"/>
                  </g>
                </g>
              </g>
              <g id="Group_13463" data-name="Group 13463">
                <g id="Group_13454" data-name="Group 13454" transform="translate(0.064)">
                  <g id="Group_13453" data-name="Group 13453">
                    <path id="Path_15149" data-name="Path 15149" d="M456.219,270.924l-10.97,6.374a.1.1,0,0,1-.083,0l-61.7-35.993a.083.083,0,0,1,0-.144l10.973-6.374a.074.074,0,0,1,.083,0l61.7,35.99A.085.085,0,0,1,456.219,270.924Z" transform="translate(-381.84 -233.001)" fill="#219dc8"/>
                    <path id="Path_15150" data-name="Path 15150" d="M456.219,272.635l-10.97,6.371a.08.08,0,0,1-.083,0l-61.7-35.993a.081.081,0,0,1,0-.141l10.973-6.374a.1.1,0,0,1,.083,0l61.7,35.993A.085.085,0,0,1,456.219,272.635Z" transform="translate(-381.84 -229.466)" fill="#82cff1"/>
                    <path id="Path_15151" data-name="Path 15151" d="M446.288,280.33l-.886-.506-62.416-36.41-.077-1.854.812-.545,11.736-6.818.84.38,62.563,36.5.04,1.857-.821.549Zm-58.748-37.9L446.279,276.7l8.013-4.658-58.748-34.271Z" transform="translate(-382.91 -234.197)" fill="#414242"/>
                  </g>
                </g>
                <g id="Group_13456" data-name="Group 13456" transform="translate(0 6.493)">
                  <g id="Group_13455" data-name="Group 13455">
                    <path id="Path_15152" data-name="Path 15152" d="M383.4,236.986V359.1a.077.077,0,0,0,.04.07l61.693,35.993a.083.083,0,0,0,.126-.07V272.979a.081.081,0,0,0-.04-.07l-61.693-35.993A.082.082,0,0,0,383.4,236.986Z" transform="translate(-381.83 -235.104)" fill="#178dc0"/>
                    <path id="Path_15153" data-name="Path 15153" d="M446.243,398.2l-.867-.481-62.447-36.431-.04-.974V237.3l1.59-.984.87.435,62.5,36.465.043.974V397.227Zm-60.21-38.738,58.718,34.252V275.045L386.033,240.79Z" transform="translate(-382.889 -236.316)" fill="#414242"/>
                  </g>
                </g>
                <g id="Group_13458" data-name="Group 13458" transform="translate(6.928 18.551)">
                  <g id="Group_13457" data-name="Group 13457">
                    <path id="Path_15154" data-name="Path 15154" d="M433.67,373.016,385.662,345.3V241.139l48.008,27.713Z" transform="translate(-384.093 -238.418)" fill="#f6e5cc"/>
                    <path id="Path_15155" data-name="Path 15155" d="M436.3,377.573,385.15,348.046V240.251L436.3,269.778Zm-48.008-31.344,44.864,25.9V271.6l-44.864-25.9Z" transform="translate(-385.15 -240.251)" fill="#414242"/>
                  </g>
                </g>
                <g id="Group_13460" data-name="Group 13460" transform="translate(6.928 36.823)">
                  <g id="Group_13459" data-name="Group 13459">
                    <path id="Path_15156" data-name="Path 15156" d="M388.1,246.214v71.8L424.41,339.2V267.4Z" transform="translate(-379.068 -246.214)" fill="#e74442"/>
                    <path id="Path_15157" data-name="Path 15157" d="M424.605,345.7,385.15,322.684V247.251l39.456,23.016Zm-36.315-24.824,33.171,19.354V272.072l-33.171-19.354Z" transform="translate(-385.15 -244.073)" fill="#414242"/>
                  </g>
                </g>
                <g id="Group_13462" data-name="Group 13462" transform="translate(61.861 36.103)">
                  <g id="Group_13461" data-name="Group 13461">
                    <path id="Path_15158" data-name="Path 15158" d="M414.728,246.653V368.77a.078.078,0,0,1-.043.07l-10.97,6.371a.083.083,0,0,1-.126-.07V253.023a.078.078,0,0,1,.043-.07l10.97-6.371A.083.083,0,0,1,414.728,246.653Z" transform="translate(-402.02 -244.759)" fill="#0a5a87"/>
                    <path id="Path_15159" data-name="Path 15159" d="M404.784,378.242l-1.664-.886-.043-1V253.37l.778-.53,11.81-6.861,1.652.925.04.965V370.958l-.91.509ZM406.218,255.1V373.774l7.995-4.645V250.456Z" transform="translate(-403.077 -245.979)" fill="#414242"/>
                  </g>
                </g>
              </g>
            </g>
          </g>
        </g>
      </g>
      <g id="Group_13534" data-name="Group 13534" transform="translate(225.745 53.226)">
        <g id="Group_13533" data-name="Group 13533">
          <g id="Group_13532" data-name="Group 13532">
            <g id="Group_13527" data-name="Group 13527" transform="translate(0.199)">
              <g id="Group_13526" data-name="Group 13526">
                <path id="Path_15218" data-name="Path 15218" d="M533.714,144.667l-135.5,78.853a.2.2,0,0,1-.2,0l-49.8-28.262a.2.2,0,0,1,0-.343l135.5-78.853a.188.188,0,0,1,.2,0l49.8,28.259A.2.2,0,0,1,533.714,144.667Z" transform="translate(-346.545 -114.244)" fill="#219dc8"/>
                <path id="Path_15219" data-name="Path 15219" d="M533.714,147.332l-135.5,78.853a.188.188,0,0,1-.2,0l-49.8-28.259a.2.2,0,0,1,0-.346l135.5-78.853a.2.2,0,0,1,.2,0l49.8,28.262A.2.2,0,0,1,533.714,147.332Z" transform="translate(-346.545 -108.737)" fill="#82d1f3"/>
                <path id="Path_15220" data-name="Path 15220" d="M399.28,226.539l-.987-.45-50.579-28.706-.11-1.076a1.766,1.766,0,0,1,.883-1.544l136.28-79.312.984.454,50.582,28.706.11,1.076a1.773,1.773,0,0,1-.88,1.544Zm-47.15-30.263,47.033,26.693,132.753-77.253-47.036-26.7Z" transform="translate(-347.604 -115.45)" fill="#414242"/>
              </g>
            </g>
            <g id="Group_13529" data-name="Group 13529" transform="translate(0 79.199)">
              <g id="Group_13528" data-name="Group 13528">
                <path id="Path_15221" data-name="Path 15221" d="M348.052,142.079v16.967a.2.2,0,0,0,.1.172l49.8,28.262a.2.2,0,0,0,.3-.172V170.341a.192.192,0,0,0-.1-.172l-49.8-28.265A.2.2,0,0,0,348.052,142.079Z" transform="translate(-346.48 -140.093)" fill="#178dc0"/>
                <path id="Path_15222" data-name="Path 15222" d="M399.111,190.278a1.763,1.763,0,0,1-.873-.23l-50.6-28.715-.1-1.085V142.378L349.2,141.3l.981.447,50.6,28.712.1,1.088v17.871l-.879.625A1.778,1.778,0,0,1,399.111,190.278Zm-48.428-30.833,47.058,26.708V172.343l-47.058-26.7Z" transform="translate(-347.539 -141.296)" fill="#414242"/>
              </g>
            </g>
            <g id="Group_13531" data-name="Group 13531" transform="translate(50.202 28.605)">
              <g id="Group_13530" data-name="Group 13530">
                <path id="Path_15223" data-name="Path 15223" d="M500.331,125.569v16.961a.2.2,0,0,1-.1.172l-135.5,78.853a.2.2,0,0,1-.3-.169V204.422a.192.192,0,0,1,.1-.172l135.5-78.853A.2.2,0,0,1,500.331,125.569Z" transform="translate(-362.865 -123.58)" fill="#075a88"/>
                <path id="Path_15224" data-name="Path 15224" d="M365.8,224.573l-.987-.447a1.775,1.775,0,0,1-.892-1.535V204.716l.885-.625,136.277-79.306.987.453a1.775,1.775,0,0,1,.886,1.532v17.874l-.886.625Zm1.262-18.159V220.2l132.753-77.253V129.161Z" transform="translate(-363.922 -124.785)" fill="#414242"/>
              </g>
            </g>
          </g>
        </g>
      </g>
      <path id="Path_15225" data-name="Path 15225" d="M461.417,311.936l-52.975,30.14a23.236,23.236,0,0,1-22.954.012l-40.124-22.771a6.653,6.653,0,0,1-.006-11.568l61.163-34.8a6.651,6.651,0,0,1,6.573,0l48.317,27.419A6.653,6.653,0,0,1,461.417,311.936Z" transform="translate(-133.237 261.107)" fill="#d4d4d4"/>
      <g id="Group_13544" data-name="Group 13544" transform="translate(204.365 506.257)">
        <g id="Group_13543" data-name="Group 13543">
          <g id="Group_13542" data-name="Group 13542">
            <g id="Group_13541" data-name="Group 13541">
              <g id="Group_13536" data-name="Group 13536" transform="translate(0.251)">
                <g id="Group_13535" data-name="Group 13535">
                  <path id="Path_15226" data-name="Path 15226" d="M451.368,292.539l-60.139,34.216a.254.254,0,0,1-.239,0l-49.709-28.21a.242.242,0,0,1,0-.423l60.139-34.216a.238.238,0,0,1,.239,0l49.709,28.21A.242.242,0,0,1,451.368,292.539Z" transform="translate(-339.586 -262.093)" fill="#f3f3f3"/>
                  <path id="Path_15227" data-name="Path 15227" d="M451.368,295.243l-60.139,34.212a.246.246,0,0,1-.239,0l-49.709-28.21a.242.242,0,0,1,0-.423l60.139-34.216a.238.238,0,0,1,.239,0l49.709,28.21A.242.242,0,0,1,451.368,295.243Z" transform="translate(-339.586 -256.511)" fill="#fff"/>
                  <path id="Path_15228" data-name="Path 15228" d="M392.3,329.751l-1.008-.414-50.524-28.675-.129-1.122a1.817,1.817,0,0,1,.919-1.584l60.924-34.663,1.024.457L454,292.4l.116,1.14a1.817,1.817,0,0,1-.916,1.56Zm-47.156-30.217,47.015,26.681,57.455-32.69L402.6,266.848Z" transform="translate(-340.644 -263.293)" fill="#414242"/>
                </g>
              </g>
              <g id="Group_13538" data-name="Group 13538" transform="translate(0 34.638)">
                <g id="Group_13537" data-name="Group 13537">
                  <path id="Path_15229" data-name="Path 15229" d="M341.076,275.42v16.866a.239.239,0,0,0,.123.208l49.712,28.213a.244.244,0,0,0,.365-.211V303.633a.239.239,0,0,0-.123-.211l-49.715-28.213A.242.242,0,0,0,341.076,275.42Z" transform="translate(-339.501 -273.401)" fill="#dfdfdf"/>
                  <path id="Path_15230" data-name="Path 15230" d="M392.094,323.506a1.794,1.794,0,0,1-.895-.236l-50.511-28.663-.126-1.128V275.715l1.682-1.119,1.03.441L393.785,303.7l.123,1.125v17.764l-.9.668A1.83,1.83,0,0,1,392.094,323.506Zm-48.388-30.8,47.058,26.705V305.6L343.706,278.9Z" transform="translate(-340.562 -274.597)" fill="#414242"/>
                </g>
              </g>
              <g id="Group_13540" data-name="Group 13540" transform="translate(50.202 28.626)">
                <g id="Group_13539" data-name="Group 13539">
                  <path id="Path_15231" data-name="Path 15231" d="M418.091,273.46v16.863a.246.246,0,0,1-.123.211l-60.146,34.219a.244.244,0,0,1-.365-.211V307.679a.239.239,0,0,1,.122-.211l60.146-34.219A.244.244,0,0,1,418.091,273.46Z" transform="translate(-355.886 -271.435)" fill="#a5a5a5"/>
                  <path id="Path_15232" data-name="Path 15232" d="M358.872,327.767l-1.026-.457a1.823,1.823,0,0,1-.9-1.569V307.96l.928-.665,60.921-34.66,1.027.457a1.822,1.822,0,0,1,.9,1.569v17.785l-.928.662Zm1.217-18.113v13.8l57.489-32.708V276.943Z" transform="translate(-356.945 -272.635)" fill="#414242"/>
                </g>
              </g>
            </g>
          </g>
        </g>
        <path id="Path_15233" data-name="Path 15233" d="M363.172,283.332a6.478,6.478,0,0,1-5.853,0c-1.615-.932-1.615-2.445,0-3.38a6.478,6.478,0,0,1,5.853,0C364.786,280.886,364.786,282.4,363.172,283.332Z" transform="translate(-308.471 -230.347)" fill="#414242"/>
        <path id="Path_15234" data-name="Path 15234" d="M366.393,271.586a6.471,6.471,0,0,1-5.85,0c-1.618-.935-1.618-2.445,0-3.38a6.472,6.472,0,0,1,5.85,0C368.008,269.141,368.008,270.652,366.393,271.586Z" transform="translate(-301.82 -254.592)" fill="#414242"/>
      </g>
    </g>
    <g id="Group_13682" data-name="Group 13682" transform="translate(695.18 99.886)">
      <g id="Group_13673" data-name="Group 13673" transform="translate(16.981)">
        <g id="Group_13672" data-name="Group 13672">
          <path id="Path_15277" data-name="Path 15277" d="M521.721,187.525c-1.949-46.669-32.585-99.7-68.428-118.446-15.8-8.261-29.959-8.467-40.7-2.142l-.025-.006-30.8,18.214,23.509,12.548c-.294,2.822-.441,5.776-.472,8.837l-8.246.846-19.035,22.939,6.018,49.295,20.5,34.167,27.821,15.456,12.818-1.839,5.176,12.046-2.375,4.109L433.654,305.7l2.8,12.79,30.247-17.9a4.4,4.4,0,0,0,.714-.42l0,0h0a13.222,13.222,0,0,0,3.613-4.446l40.528-65.254a47.935,47.935,0,0,0,3.208-5.169h-.024C519.772,215.744,522.365,202.96,521.721,187.525Zm-77.477-59.974,23.086,42.3-6.245,32.864c-19.112-10.814-39.823-42.673-39.829-67.733,0-7.106,2.8-15.042,2.908-16.869Z" transform="translate(-375.883 -60.956)" fill="#d93a38"/>
          <path id="Path_15278" data-name="Path 15278" d="M438.223,320.959a1.457,1.457,0,0,1-2.166-.944l-2.9-13.281.073-.337,14-62.594,1.98-3.426-4.388-10.216-12.153,1.744-28.645-15.916-20.932-35.147-6.1-49.966,19.878-23.956,7.5-.769c.052-2.274.172-4.462.359-6.524l-25.05-13.369,33.8-19.994.037.012c11.5-6.45,26.255-5.583,41.616,2.454C491.358,87.679,522.432,141.411,524.4,188.5h0c.582,14.016-1.492,26.484-6.018,36.263h.092l-1.21,2.31a50.019,50.019,0,0,1-3.319,5.344l-40.47,65.168a14.68,14.68,0,0,1-4.057,4.912,6.388,6.388,0,0,1-.984.57Zm-1.854-14.218,16.008-12.266,28.378-16.792a3.713,3.713,0,0,0,.628-.368l-.628.368a15.251,15.251,0,0,0,3.741-4.247l26.831-42.762a47.777,47.777,0,0,0,2.74-4.308l.392-.76c5.056-9.6,7.406-22.381,6.794-36.97h0C519.334,142.542,489.013,90,453.67,71.515c-14.644-7.664-28.559-8.436-39.177-2.182l-.6.355-.021-.009-27.79,16.437,21.977,11.73-.11,1.048c-.276,2.687-.432,5.611-.463,8.693l-.018,1.4-9,.925-18.189,21.922,5.9,48.293,20.111,33.52,26.99,14.99,13.489-1.93,5.96,13.875-2.651,4.581ZM463.329,206.2l-1.909-1.079c-19.173-10.844-40.623-42.7-40.629-69.1,0-5.117,1.357-10.486,2.252-14.04a27.467,27.467,0,0,0,.659-2.92l.135-2.317,22.648,10.642,23.6,43.243ZM426.42,121.435c-.1.392-.205.83-.328,1.318-.858,3.4-2.157,8.543-2.157,13.271.006,24.076,19.55,53.989,37.136,65.22l5.721-30.094L444.22,129.795Z" transform="translate(-376.99 -61.998)" fill="#414242"/>
        </g>
      </g>
      <g id="Group_13675" data-name="Group 13675" transform="translate(20.694)">
        <g id="Group_13674" data-name="Group 13674">
          <path id="Path_15279" data-name="Path 15279" d="M518.885,187.525c-1.949-46.669-32.585-99.7-68.428-118.446-15.8-8.261-29.959-8.467-40.7-2.142l-.025-.006-30.8,18.214,23.509,12.548c-.294,2.822-.441,5.776-.472,8.837l9.181,1.811L422,107.2l30.134,27.315,20.141,49.647,4.073,29.494,42.563-24.48C518.9,188.619,518.907,188.086,518.885,187.525Z" transform="translate(-376.69 -60.956)" fill="#e74442"/>
          <path id="Path_15280" data-name="Path 15280" d="M516.315,192.092C514.354,145.43,483.724,92.421,447.89,73.68c-15.8-8.261-29.959-8.47-40.7-2.142l-.025-.009-26.7,15.793a2.673,2.673,0,0,0,.1,4.661l17.754,9.481a2.653,2.653,0,0,1,1.394,2.577q-.193,2.358-.264,4.829a2.682,2.682,0,0,0,2.163,2.7l6.573,1.293a2.7,2.7,0,0,0,.8.037l9.254-.974a2.675,2.675,0,0,1,2.078.677l28.8,26.1a2.657,2.657,0,0,1,.68.978l19.786,48.771a2.73,2.73,0,0,1,.172.637l3.481,25.231a2.677,2.677,0,0,0,3.984,1.955l37.706-21.686C515.424,193.692,515.816,192.987,516.315,192.092Z" transform="translate(-376.247 -51.462)" fill="#f9e8cc"/>
          <path id="Path_15281" data-name="Path 15281" d="M476.621,217.221l-4.36-31.608-19.933-49.132-29.35-26.6-10.388,1.094L401.9,108.862l.012-1.305c.028-2.782.156-5.445.38-7.93l-23.6-12.594a.925.925,0,0,1-.034-1.612l32.386-19.158.037.012c11.5-6.45,26.255-5.583,41.616,2.454C488.927,87.679,520,141.411,521.966,188.5v0c.012.34.015.671.018,1l.034,1.609ZM424.044,106.6l31.057,28.36,20.243,50.024,3.751,27.183,39.747-22.856c0-.224,0-.45-.015-.677v0C516.9,142.542,486.583,90,451.239,71.515c-8.093-4.235-15.959-6.364-23.169-6.368L390.037,87.667l15.591,10.18-.11,1.048c-.236,2.3-.386,4.786-.441,7.391l7.655,1.508Z" transform="translate(-378.202 -61.998)" fill="#414242"/>
        </g>
      </g>
      <path id="Path_15282" data-name="Path 15282" d="M383.91,121.184l31.6-17.35a5.255,5.255,0,0,1,6.845,1.6c5.265,7.514,18.471,23.074,37.574,23.074L425.308,151.26l-21.971-3.441Z" transform="translate(-345.725 23.019)" fill="#f8e7cc"/>
      <g id="Group_13677" data-name="Group 13677" transform="translate(0 18.51)">
        <g id="Group_13676" data-name="Group 13676">
          <path id="Path_15283" data-name="Path 15283" d="M382.569,172.6l-.025-.021.184.429q1.687,4.229,3.594,8.365l47.919,111.539c1.327,5.28,4.829,10.437,8.8,12.511s7.192.438,8.13-3.653L491.7,236.514a43.841,43.841,0,0,0,3.064-4.933l.144-.233h-.022c5.028-9.551,7.621-22.335,6.977-37.767-1.949-46.669-32.585-99.7-68.428-118.446s-63.326,3.885-61.377,50.554C372.7,141.12,376.5,157.244,382.569,172.6Zm18.83-31.565c-1.066-25.568,13.992-37.969,33.63-27.7s36.425,39.327,37.491,64.9-13.988,37.972-33.627,27.7S402.468,166.605,401.4,141.034Z" transform="translate(-370.39 -66.992)" fill="#e74442"/>
          <path id="Path_15284" data-name="Path 15284" d="M447.364,308.946a8.548,8.548,0,0,1-3.99-1.085c-4.266-2.228-8.123-7.664-9.6-13.516L385.938,183.038c-1.281-2.77-2.5-5.611-3.61-8.405l-2.485-6.646h0a144.744,144.744,0,0,1-8.3-41.184c-1.045-25.112,6.426-44.634,20.5-53.56,11.73-7.437,27.061-6.885,43.179,1.547,36.232,18.949,67.307,72.678,69.271,119.77.582,14.019-1.492,26.488-6.018,36.263l-1.177,2.412h0a49.383,49.383,0,0,1-3.26,5.243L453.7,303.433a7.154,7.154,0,0,1-3.751,4.958A6.107,6.107,0,0,1,447.364,308.946ZM385.23,173.435h0c1.106,2.782,2.3,5.571,3.573,8.326L436.743,293.34c1.33,5.2,4.621,9.928,8.087,11.739a3.608,3.608,0,0,0,5.871-2.611l.2-.481,40.525-65.254a43.473,43.473,0,0,0,3.012-4.845l.12-.227c5.056-9.6,7.406-22.381,6.8-36.97-1.921-46.093-32.242-98.633-67.585-117.119-15.092-7.891-29.313-8.482-40.038-1.676-13.1,8.31-20.04,26.815-19.038,50.775.61,14.69,4.207,30.732,10.4,46.4Zm67.849,38.717a30.137,30.137,0,0,1-13.854-3.781c-20.052-10.486-37.249-40.194-38.34-66.222h0c-.582-14.019,3.631-24.946,11.565-29.978,6.643-4.213,15.294-3.928,24.367.821,20.049,10.486,37.246,40.191,38.334,66.222.582,14.019-3.628,24.943-11.562,29.975A19.307,19.307,0,0,1,453.079,212.152Zm-49.05-70.135c1.042,25.029,17.488,53.548,36.652,63.571,8.028,4.2,15.573,4.541,21.226.947,6.959-4.413,10.642-14.325,10.1-27.189-1.045-25.029-17.485-53.548-36.649-63.571-8.031-4.195-15.566-4.538-21.229-.95-6.956,4.416-10.639,14.325-10.1,27.192Z" transform="translate(-371.448 -68.039)" fill="#414242"/>
        </g>
      </g>
      <g id="Group_13678" data-name="Group 13678" transform="translate(42.739 112.611)">
        <rect id="Rectangle_967" data-name="Rectangle 967" width="36.806" height="3.065" transform="translate(0 17.967) rotate(-29.22)" fill="#414242"/>
      </g>
      <g id="Group_13679" data-name="Group 13679" transform="translate(30.962 82.873)">
        <rect id="Rectangle_968" data-name="Rectangle 968" width="36.806" height="3.065" transform="matrix(0.873, -0.488, 0.488, 0.873, 0, 17.967)" fill="#414242"/>
      </g>
      <g id="Group_13680" data-name="Group 13680" transform="translate(102.184 198.712)">
        <path id="Path_15285" data-name="Path 15285" d="M406.292,147.47l-1.5-2.675,32.133-17.949-1.734,4.479Z" transform="translate(-404.795 -126.846)" fill="#414242"/>
      </g>
      <g id="Group_13681" data-name="Group 13681" transform="translate(30.957 62.012)">
        <path id="Path_15286" data-name="Path 15286" d="M381.551,114.834l1.573-15.125,2.484-7.852,8.465-9.621,19.386.821.224,13.829Z" transform="translate(-381.551 -82.235)" fill="#414242"/>
      </g>
    </g>
  </g>
</svg>
