<svg xmlns="http://www.w3.org/2000/svg" xmlns:xlink="http://www.w3.org/1999/xlink" width="59" height="28" viewBox="0 0 59 28">
  <defs>
    <clipPath id="clip-BMS_logo_1">
      <rect width="59" height="28"/>
    </clipPath>
  </defs>
  <g id="BMS_logo_1" data-name="BMS logo – 1" clip-path="url(#clip-BMS_logo_1)">
    <g id="Group_1726" data-name="Group 1726" transform="translate(264.388 -491.03)">
      <path id="Path_1647" data-name="Path 1647" d="M-66.739,505.393a10.755,10.755,0,0,0-4-2.024l-4.733-1.529c-1.413-.422-1.413-1.043-1.413-1.247a1.158,1.158,0,0,1,.613-.994,3.247,3.247,0,0,1,1.884-.495,5.106,5.106,0,0,1,2.558.642,3.939,3.939,0,0,1,1.632,1.648l.213.417,4.508-1.313-.229-.578a7.9,7.9,0,0,0-3.247-3.752,10.012,10.012,0,0,0-5.463-1.487,8.055,8.055,0,0,0-5.246,1.726A5.3,5.3,0,0,0-81.8,500.69a4.648,4.648,0,0,0,1.3,3.39,7.827,7.827,0,0,0,3.4,2l4.855,1.526a4.327,4.327,0,0,1,1.711.841,1.185,1.185,0,0,1,.4.9,1.5,1.5,0,0,1-.767,1.214,3.915,3.915,0,0,1-2.286.606,5.294,5.294,0,0,1-3.079-.887,4.781,4.781,0,0,1-1.815-2.3l-.187-.495-4.647,1.4.2.563a9.229,9.229,0,0,0,3.384,4.364,9.88,9.88,0,0,0,5.929,1.779,9.055,9.055,0,0,0,5.839-1.83,5.764,5.764,0,0,0,2.327-4.639A4.732,4.732,0,0,0-66.739,505.393Z" transform="translate(-140.148)" fill="#2262ad"/>
      <path id="Path_1648" data-name="Path 1648" d="M-247.876,509.073a5.36,5.36,0,0,0-2.334-1.745,4.8,4.8,0,0,0,1.4-3.75,5.163,5.163,0,0,0-1.96-4.1,7.5,7.5,0,0,0-4.886-1.542h-1.406v4.346h1.393a2.1,2.1,0,0,1,1.513.492,1.608,1.608,0,0,1,.549,1.266,1.615,1.615,0,0,1-.521,1.274,2.029,2.029,0,0,1-1.474.534h-3.782v-7.912h-4.784V518.1H-254a7.684,7.684,0,0,0,5.105-1.595,5.446,5.446,0,0,0,1.926-4.362A5.351,5.351,0,0,0-247.876,509.073Zm-3.916,2.729a1.771,1.771,0,0,1-.581,1.375h0a2.325,2.325,0,0,1-1.653.553h-5.354v-3.8H-254a2.311,2.311,0,0,1,1.64.541A1.719,1.719,0,0,1-251.792,511.8Z" transform="translate(0 -2.515)" fill="#2262ad"/>
      <g id="Group_1725" data-name="Group 1725" transform="translate(-245.195 495.052)">
        <path id="Path_1649" data-name="Path 1649" d="M-180.5,496.318V516.47h4.86V505.142l.011.015v-8.183l-.452-.655Z" transform="translate(180.503 -496.318)" fill="#767676"/>
        <path id="Path_1650" data-name="Path 1650" d="M-139.976,496.318l-5.923,8.562-3.226-4.664v8.053l3.226,4.478,5.494-7.611V516.47h4.86V496.318Z" transform="translate(156.24 -496.318)" fill="#767676"/>
      </g>
    </g>
  </g>
</svg>
