<svg xmlns="http://www.w3.org/2000/svg" xmlns:xlink="http://www.w3.org/1999/xlink" width="56" height="56" viewBox="0 0 56 56">
  <defs>
    <clipPath id="clip-Resolved">
      <rect width="56" height="56"/>
    </clipPath>
  </defs>
  <g id="Resolved" clip-path="url(#clip-Resolved)">
    <g id="Icon_material-done" data-name="Icon material-done" transform="translate(13.462 12.778)" fill="#b495ff" stroke-linecap="round" stroke-linejoin="round">
      <path d="M 11.1062479019165 23.83275604248047 L 10.57591819763184 23.30242538452148 L 4.569668292999268 17.29617500305176 L 4.039338111877441 16.76584434509277 L 4.569668292999268 16.23551559448242 L 6.07122802734375 14.73395538330078 L 6.601558208465576 14.20362567901611 L 7.131888389587402 14.73395538330078 L 11.1062479019165 18.70830535888672 L 21.94488906860352 7.869665145874023 L 22.47521781921387 7.339335441589355 L 23.00554847717285 7.869665145874023 L 24.50710868835449 9.371234893798828 L 25.03743743896484 9.901565551757812 L 24.50710868835449 10.43189525604248 L 11.63657855987549 23.30242538452148 L 11.1062479019165 23.83275604248047 Z" stroke="none"/>
      <path d="M 11.1062479019165 22.7720947265625 L 23.97677803039551 9.901565551757812 L 22.47521781921387 8.399994850158691 L 11.1062479019165 19.76896476745605 L 6.601558208465576 15.26428508758545 L 5.099998474121094 16.76584434509277 L 11.1062479019165 22.7720947265625 M 11.1062479019165 24.27209854125977 C 10.7223653793335 24.27209854125977 10.33848285675049 24.12565040588379 10.04558849334717 23.83275604248047 L 4.039338111877441 17.82650566101074 C 3.453548192977905 17.24071502685547 3.453548192977905 16.29097557067871 4.039338111877441 15.70518493652344 L 5.540898323059082 14.20362567901611 C 6.126688003540039 13.61783504486084 7.076428413391113 13.61783504486084 7.66221809387207 14.20362567901611 L 11.10624694824219 17.64764595031738 L 21.41455841064453 7.339335441589355 C 21.69586753845215 7.058025360107422 22.0773983001709 6.89999532699585 22.47521781921387 6.89999532699585 C 22.87304878234863 6.89999532699585 23.25457763671875 7.058035373687744 23.53587913513184 7.339335441589355 L 25.03743743896484 8.84090518951416 C 25.62322807312012 9.426694869995117 25.62322807312012 10.37644481658936 25.03743743896484 10.96222496032715 L 12.16690826416016 23.83275604248047 C 11.87401294708252 24.12565040588379 11.49013042449951 24.27209854125977 11.1062479019165 24.27209854125977 Z" stroke="none" fill="#b495ff"/>
    </g>
  </g>
</svg>
